<?xml version="1.0" encoding="UTF-8"?>
<svg xmlns="http://www.w3.org/2000/svg" xmlns:xlink="http://www.w3.org/1999/xlink" width="171.66" height="30.365" viewBox="0 0 171.66 30.365" style="enable-background:new 0 0 171.66 30.365;">
<g>
	<path d="M74.902,26.907c0.904,0,1.162-0.849,1.32-1.589c-0.442,0-0.857-0.021-1.175,0.121c-0.342,0.155-0.625,0.354-0.708,0.74   C74.256,26.577,74.505,26.907,74.902,26.907 M75.738,27.956c-0.006-0.177,0.031-0.354,0.116-0.751h-0.023   c-0.338,0.397-0.922,0.916-1.959,0.916c-1.313,0-1.847-0.706-1.583-1.843c0.308-1.346,1.66-1.897,3.471-1.897h0.661   c0.104-0.484,0.364-1.191-0.481-1.158c-0.512,0.021-0.783,0.519-0.842,0.85h-1.976c0.155-0.783,0.659-1.236,1.276-1.49   c0.63-0.264,1.361-0.331,1.979-0.331c1.125,0,2.383,0.476,2.096,1.722l-0.605,2.847c-0.049,0.232-0.057,0.474-0.12,1.137H75.738z"/>
	<polygon points="79.114,27.956 80.808,19.989 82.903,19.989 81.21,27.956 "/>
	<polygon points="83.825,27.956 83.314,22.417 85.433,22.417 85.492,26.344 85.515,26.344 87.319,22.417 89.637,22.417    89.767,26.322 89.788,26.322 91.589,22.417 93.443,22.417 90.522,27.956 88.205,27.956 88.022,24.094 88,24.094 86.099,27.956 "/>
	<path d="M95.169,26.179c0.082-0.387,0.367-0.585,0.709-0.74c0.317-0.143,0.732-0.121,1.173-0.121   c-0.157,0.74-0.416,1.589-1.319,1.589C95.334,26.907,95.085,26.577,95.169,26.179 M98.576,27.956   c0.063-0.663,0.071-0.904,0.12-1.137l0.604-2.847c0.287-1.246-0.969-1.722-2.094-1.722c-0.618,0-1.35,0.067-1.979,0.331   c-0.616,0.254-1.121,0.707-1.276,1.49h1.975c0.06-0.331,0.33-0.828,0.843-0.85c0.846-0.033,0.585,0.674,0.481,1.158h-0.661   c-1.81,0-3.163,0.552-3.471,1.897c-0.263,1.137,0.271,1.843,1.583,1.843c1.037,0,1.622-0.519,1.96-0.916h0.023   c-0.086,0.397-0.123,0.574-0.116,0.751H98.576z"/>
	<polygon points="106.893,22.417 102.251,30.073 100.321,30.073 101.52,28.121 100.415,22.417 102.654,22.417 102.929,26.268    102.95,26.268 104.96,22.417 "/>
	<path d="M110.355,24.125c0.04-0.187,0.042-0.353-0.033-0.462c-0.085-0.122-0.245-0.199-0.533-0.199   c-0.308,0-0.533,0.178-0.601,0.496c-0.087,0.409,0.767,0.387,1.993,0.795c0.617,0.209,0.982,0.618,0.791,1.522   c-0.312,1.468-1.771,1.843-3.038,1.843c-1.358,0-2.624-0.275-2.253-1.964h1.985c-0.068,0.165-0.054,0.354,0.037,0.497   c0.092,0.143,0.244,0.253,0.443,0.253c0.409,0,0.737-0.155,0.813-0.507c0.209-0.982-3.191-0.398-2.765-2.406   c0.291-1.368,1.827-1.743,2.931-1.743c1.313,0,2.453,0.343,2.216,1.875H110.355z"/>
	<polygon points="116.492,27.956 118.186,19.989 120.282,19.989 118.589,27.956 "/>
	<path d="M120.166,27.956l1.178-5.539h2.096l-1.176,5.539H120.166z M121.534,21.468l0.314-1.479h2.118l-0.314,1.479H121.534z"/>
	<path d="M127.512,24.125c0.041-0.187,0.042-0.353-0.034-0.462c-0.084-0.122-0.244-0.199-0.531-0.199   c-0.31,0-0.534,0.178-0.603,0.496c-0.088,0.409,0.768,0.387,1.994,0.795c0.617,0.209,0.982,0.618,0.789,1.522   c-0.311,1.468-1.77,1.843-3.038,1.843c-1.357,0-2.622-0.275-2.254-1.964h1.987c-0.069,0.165-0.053,0.354,0.038,0.497   c0.091,0.143,0.244,0.253,0.442,0.253c0.407,0,0.739-0.155,0.813-0.507c0.209-0.982-3.192-0.398-2.765-2.406   c0.29-1.368,1.826-1.743,2.93-1.743c1.313,0,2.454,0.343,2.216,1.875H127.512z"/>
	<path d="M131.581,22.417l0.179-0.839l2.266-0.794l-0.348,1.633h1.214l-0.281,1.324h-1.214l-0.466,2.195   c-0.031,0.144-0.271,0.86,0.214,0.86c0.274,0,0.562,0,0.812-0.032l-0.265,1.246c-0.493,0.089-0.84,0.11-1.148,0.11   c-1.423,0-2.24-0.199-1.771-1.897l0.528-2.482h-1.081l0.281-1.324H131.581z"/>
	<path d="M136.928,25.605c-0.163,0.717-0.107,1.335,0.676,1.335c0.585,0,1.008-0.276,1.194-0.794h1.942   c-0.218,0.717-0.78,1.234-1.376,1.544c-0.551,0.309-1.195,0.431-1.846,0.431c-2.218,0-2.898-0.949-2.438-3.123   c0.374-1.754,1.897-2.747,3.563-2.747c2.251,0,2.693,1.291,2.255,3.354H136.928z M139.153,24.48   c0.063-0.298,0.038-0.596-0.078-0.828c-0.116-0.231-0.328-0.375-0.653-0.353c-0.735,0.033-1.021,0.553-1.212,1.181H139.153z"/>
	<path d="M144.692,23.023c0.591-0.551,1.188-0.772,1.896-0.772c1.192,0,1.909,0.772,1.65,1.997l-0.788,3.708h-2.097l0.692-3.255   c0.094-0.541,0.084-1.125-0.566-1.125c-1.037,0-1.146,1.135-1.16,1.202l-0.676,3.178h-2.097l0.875-4.116   c0.105-0.496,0.164-0.826,0.236-1.423h2.13L144.692,23.023z"/>
	<path d="M148.973,27.956l1.177-5.539h2.097l-1.178,5.539H148.973z M150.339,21.468l0.315-1.479h2.118l-0.313,1.479H150.339z"/>
	<path d="M155.725,23.023c0.592-0.551,1.189-0.772,1.896-0.772c1.191,0,1.91,0.772,1.649,1.997l-0.788,3.708h-2.096l0.691-3.255   c0.093-0.541,0.085-1.125-0.566-1.125c-1.037,0-1.146,1.135-1.16,1.202l-0.676,3.178h-2.096l0.875-4.116   c0.105-0.496,0.164-0.826,0.236-1.423h2.129L155.725,23.023z"/>
	<g>
		<defs>
			<rect id="SVGID_1_" x="0.58" y="0.59" width="170.579" height="29.55"/>
		</defs>
		<clipPath id="SVGID_2_">
			<use xlink:href="#SVGID_1_" style="overflow:visible;"/>
		</clipPath>
		<path style="clip-path:url(#SVGID_2_);" d="M164.525,25.01c-0.146,0.683-0.516,1.544-1.376,1.544s-0.865-0.861-0.719-1.544    c0.145-0.685,0.515-1.546,1.376-1.546C164.666,23.464,164.671,24.326,164.525,25.01 M167.172,22.417h-2.041l-0.226,0.806h-0.021    c-0.183-0.65-0.712-0.972-1.483-0.972c-1.599,0-2.781,1.147-3.123,2.76c-0.314,1.478,0.252,2.758,1.841,2.758    c0.706,0,1.512-0.266,1.985-0.883h0.021l-0.133,0.629c-0.174,0.816-0.466,1.412-1.392,1.412c-0.222,0-0.434-0.045-0.577-0.144    c-0.131-0.111-0.208-0.265-0.161-0.541h-1.952c-0.34,1.6,1.217,1.898,2.442,1.898c0.694,0,1.893-0.232,2.568-0.772    c0.783-0.618,1.002-1.237,1.238-2.185L167.172,22.417z"/>
		<path style="clip-path:url(#SVGID_2_);" d="M171.159,28.109h-0.284v-1.554h-0.008l-0.62,1.554h-0.168l-0.603-1.554h-0.008v1.554    h-0.284v-1.813h0.459l0.521,1.279l0.539-1.279h0.456V28.109z M168.86,26.555h-0.581v1.554h-0.302v-1.554h-0.584v-0.259h1.467    V26.555z"/>
	</g>
	<path d="M0.58,9.625c0-4.99,4.045-9.036,9.035-9.036c4.988,0,9.033,4.046,9.033,9.036c0,4.991-4.045,9.037-9.033,9.037   C4.625,18.663,0.58,14.617,0.58,9.625 M9.615,17.957c4.597,0,8.324-3.727,8.324-8.326c0-4.599-3.727-8.326-8.324-8.326   c-4.6,0-8.327,3.728-8.327,8.326C1.288,14.23,5.015,17.957,9.615,17.957"/>
	<path d="M9.615,1.854l4.799,14.043H4.816L9.615,1.854z M5.795,15.187h3.164l2.225-6.539L9.615,4.04   C9.615,4.042,5.795,15.187,5.795,15.187 M9.707,15.187h3.719l-1.873-5.419L9.705,15.19"/>
	<path d="M147.708,16.091c0.894,0,1.605-0.724,1.605-1.617c0-0.889-0.712-1.609-1.605-1.609c-0.892,0-1.612,0.721-1.612,1.609   C146.096,15.368,146.816,16.091,147.708,16.091 M147.708,15.806c-0.735,0-1.33-0.595-1.33-1.332c0-0.728,0.595-1.326,1.33-1.326   c0.733,0,1.325,0.599,1.325,1.326C149.033,15.211,148.441,15.806,147.708,15.806 M147.612,14.581c0.104,0.008,0.204,0,0.274,0.079   c0.088,0.089,0.088,0.24,0.108,0.4c0.012,0.112,0.043,0.231,0.064,0.34h0.378c-0.065-0.172-0.086-0.368-0.113-0.549   c-0.028-0.205-0.059-0.32-0.319-0.373V14.47c0.25-0.052,0.384-0.223,0.384-0.443c0-0.427-0.358-0.523-0.707-0.523h-0.611V15.4   h0.296v-0.819H147.612z M147.366,14.286v-0.484h0.354c0.235,0,0.3,0.071,0.3,0.213c0,0.146-0.064,0.265-0.343,0.271H147.366z"/>
	<path d="M26.057,10.956c0,1.241-0.063,3.181-1.811,3.181c-0.885,0-1.538-0.633-1.538-1.518   C22.708,10.913,24.963,10.934,26.057,10.956 M23.194,8.341c-0.043-0.484,0.315-1.517,1.409-1.517c1.118,0,1.454,0.864,1.454,1.307   v0.989c-1.264-0.041-2.863,0.022-4.129,0.568c-1.917,0.823-2.252,2.614-2.252,3.353c0,2.064,1.475,3.202,3.454,3.202   c1.433,0,2.527-0.506,3.244-1.729h0.042c0,0.443,0.042,0.928,0.106,1.412h2.843c-0.043-0.317-0.127-0.634-0.148-1.158V8.996   c0-3.183-2.38-3.962-4.508-3.962c-1.137,0-2.254,0.168-3.117,0.674c-0.842,0.484-1.411,1.307-1.433,2.634H23.194z"/>
	<path d="M37.11,14.623c-0.675,0.966-1.665,1.621-3.267,1.621c-1.052,0-3.095-0.801-3.474-2.339   c-0.17-0.654-0.211-1.327-0.211-1.686V5.348h3.16v6.343c0.021,1.14,0.336,2.445,1.895,2.445c0.99,0,1.853-0.905,1.897-2.445V5.348   h3.159v8.683c0.021,0.633,0.063,1.263,0.126,1.896h-3.159L37.11,14.623z"/>
	<path d="M44.295,10.639c0-1.624,0.253-3.497,2.275-3.497c1.707,0,2.274,2.043,2.274,3.497c0,1.452-0.567,3.497-2.274,3.497   C44.548,14.136,44.295,12.262,44.295,10.639 M48.844,6.571h-0.042c-0.589-0.885-1.727-1.537-2.821-1.537   c-3.286,0-4.952,2.76-4.952,5.605c0,2.717,1.456,5.604,4.551,5.604c1.369,0,2.549-0.569,3.244-1.813h0.042   c0,0.506,0.042,0.989,0.084,1.496h3.16c-0.041-0.696-0.106-1.412-0.106-2.106V0.714h-3.16V6.571z"/>
	<path d="M56.094,15.927h-3.159V5.348h3.159V15.927z M56.2,3.432h-3.37V0.714h3.37V3.432z"/>
	<path d="M60.12,10.639c0-1.687,0.316-3.497,2.256-3.497c1.938,0,2.253,1.811,2.253,3.497c0,1.686-0.315,3.497-2.253,3.497   C60.437,14.136,60.12,12.325,60.12,10.639 M67.893,10.639c0-3.332-2.063-5.605-5.517-5.605c-3.456,0-5.52,2.273-5.52,5.605   c0,3.327,2.064,5.604,5.52,5.604C65.83,16.244,67.893,13.966,67.893,10.639"/>
	<rect x="68.91" y="9.185" width="2.617" height="2.358"/>
	<path d="M72.684,5.348V3.264l3.161-1.138v3.222h2.38v2.107h-2.38v4.909c0,1.391,0.211,1.771,1.307,1.771   c0.337,0,0.675-0.041,1.01-0.063v1.854c-0.358,0.169-2.043,0.316-2.483,0.316c-2.465,0-2.994-1.285-2.994-3.584V7.456h-2.128V5.348   H72.684z"/>
	<path d="M81.46,9.375c0.041-1.161,0.358-2.232,1.81-2.232c1.541,0,1.856,1.071,1.856,2.232H81.46z M88.39,11.48   c0-0.692,0-1.369-0.084-2.023c-0.083-0.672-0.232-1.305-0.527-1.894c-0.884-1.855-2.527-2.529-4.509-2.529   c-3.223,0-5.075,2.444-5.075,5.626c0,3.541,1.454,5.584,5.075,5.584c2.465,0,4.509-0.864,4.783-3.478h-2.844   c-0.296,0.97-0.844,1.37-1.939,1.37c-1.62,0-1.81-1.286-1.81-2.656H88.39z"/>
	<path d="M95.429,9.059c-0.021-0.864-0.38-1.917-1.601-1.917c-1.348,0-1.37,2.525-1.411,3.351c0.083,0.967,0.105,3.644,1.452,3.644   c1.223,0,1.58-1.2,1.604-2.065h3.073c-0.104,2.698-1.769,4.173-4.677,4.173c-3.138,0-4.717-2.805-4.717-5.604   c0-2.805,1.579-5.605,4.717-5.605c2.697,0,4.699,1.537,4.677,4.025H95.429z"/>
	<path d="M99.307,15.927V0.714h3.139v5.879l0.041,0.041c0.652-0.968,1.644-1.601,3.246-1.601c1.052,0,3.093,0.779,3.476,2.317   c0.167,0.652,0.209,1.326,0.209,1.686v6.891h-3.16V9.564c-0.021-1.138-0.336-2.422-1.896-2.422c-0.989,0-1.852,0.883-1.897,2.422   v6.363H99.307z"/>
	<path d="M113.486,6.571l0.043,0.063c0.653-0.968,1.642-1.601,3.244-1.601c1.051,0,3.097,0.779,3.474,2.317   c0.17,0.652,0.21,1.326,0.21,1.686v6.891h-3.159V9.564c-0.019-1.138-0.338-2.422-1.896-2.422c-0.989,0-1.854,0.883-1.895,2.422   v6.363h-3.159V5.348h3.139V6.571z"/>
	<path d="M124.548,15.927h-3.157V5.348h3.157V15.927z M124.654,3.432h-3.371V0.714h3.371V3.432z"/>
	<path d="M131.589,9.059c-0.022-0.864-0.381-1.917-1.603-1.917c-1.348,0-1.37,2.525-1.411,3.351   c0.084,0.967,0.106,3.644,1.454,3.644c1.222,0,1.579-1.2,1.601-2.065h3.074c-0.104,2.698-1.77,4.173-4.675,4.173   c-3.139,0-4.72-2.805-4.72-5.604c0-2.805,1.581-5.605,4.72-5.605c2.695,0,4.697,1.537,4.675,4.025H131.589z"/>
	<path d="M141.666,10.956c0,1.241-0.064,3.181-1.812,3.181c-0.886,0-1.538-0.633-1.538-1.518   C138.316,10.913,140.57,10.934,141.666,10.956 M138.799,8.341c-0.042-0.484,0.317-1.517,1.412-1.517   c1.117,0,1.455,0.864,1.455,1.307v0.989c-1.265-0.041-2.867,0.022-4.129,0.568c-1.919,0.823-2.257,2.614-2.257,3.353   c0,2.064,1.475,3.202,3.456,3.202c1.433,0,2.529-0.506,3.246-1.729h0.042c0,0.443,0.042,0.928,0.104,1.412h2.845   c-0.041-0.317-0.127-0.634-0.148-1.158V8.996c0-3.183-2.379-3.962-4.508-3.962c-1.138,0-2.253,0.168-3.117,0.674   c-0.842,0.484-1.412,1.307-1.433,2.634H138.799z"/>
</g>
<script xmlns="" id="bw-fido2-page-script"/></svg>