<?xml version="1.0" standalone="no"?>
<!DOCTYPE svg PUBLIC "-//W3C//DTD SVG 20010904//EN"
 "http://www.w3.org/TR/2001/REC-SVG-20010904/DTD/svg10.dtd">
<svg version="1.0" xmlns="http://www.w3.org/2000/svg"
 width="2716.000000pt" height="984.000000pt" viewBox="0 0 2716.000000 984.000000"
 preserveAspectRatio="xMidYMid meet">

<g transform="translate(0.000000,984.000000) scale(0.100000,-0.100000)"
fill="#000000" stroke="none">
<path d="M7762 9479 c-82 -14 -197 -55 -297 -106 -86 -44 -101 -57 -340 -297
-1111 -1115 -1842 -2270 -2235 -3530 -82 -264 -199 -415 -580 -746 -225 -196
-336 -305 -411 -405 -73 -96 -135 -210 -166 -304 l-28 -88 -113 -53 c-63 -30
-216 -112 -340 -183 -386 -220 -546 -295 -742 -348 -71 -20 -110 -24 -235 -24
-178 0 -224 12 -423 106 -145 69 -229 126 -299 202 -281 308 -379 850 -303
1685 28 302 241 944 456 1373 103 207 149 286 270 469 420 634 929 1004 1522
1105 90 16 94 16 150 -5 200 -75 355 -195 386 -299 9 -30 16 -66 16 -80 -1
-52 -38 -129 -122 -256 -310 -468 -528 -1005 -672 -1654 -33 -147 -86 -436
-86 -466 0 -18 70 -59 145 -85 71 -24 164 -26 229 -4 86 29 194 148 290 319
16 28 53 91 82 140 103 174 369 766 473 1052 217 594 279 1102 195 1594 -14
83 -22 102 -61 157 -78 110 -198 187 -339 217 -90 19 -291 19 -419 0 -55 -8
-188 -33 -295 -56 -190 -40 -199 -44 -335 -114 -262 -134 -554 -318 -800 -502
-413 -308 -805 -706 -1083 -1098 -154 -218 -318 -514 -422 -765 -29 -69 -75
-172 -102 -230 -174 -366 -289 -767 -344 -1205 -23 -175 -26 -607 -6 -765 95
-755 451 -1236 1047 -1416 104 -32 190 -33 415 -9 884 97 1496 423 1762 939
28 55 63 134 78 175 l27 76 164 87 c274 147 400 209 491 244 48 19 89 34 91
34 11 0 18 -142 27 -585 l10 -480 22 -19 c13 -10 56 -35 97 -54 64 -31 88 -37
161 -40 104 -5 167 11 259 65 132 78 258 225 501 588 268 401 381 522 536 575
70 25 93 25 100 3 21 -63 101 -207 141 -252 59 -68 147 -125 231 -151 95 -30
259 -28 386 4 193 49 406 159 607 312 l57 43 -26 -77 c-23 -67 -26 -94 -27
-207 0 -125 1 -132 31 -195 52 -110 128 -178 245 -219 l53 -19 85 30 c135 46
374 169 521 267 227 151 392 286 841 692 209 189 349 309 361 309 4 0 5 -111
1 -247 -7 -273 1 -350 43 -439 34 -73 98 -127 217 -185 215 -104 379 -104 592
1 166 82 252 155 625 530 322 324 462 450 501 450 27 0 67 -38 80 -77 30 -93
-8 -243 -132 -521 -194 -430 -228 -520 -249 -659 -28 -183 48 -281 234 -300
51 -5 53 -5 131 58 204 162 353 320 743 789 323 388 610 688 777 814 182 136
382 210 429 158 45 -51 7 -174 -123 -394 -45 -78 -49 -88 -54 -173 -10 -146
-38 -238 -191 -611 -93 -226 -119 -330 -114 -464 4 -86 9 -115 30 -160 31 -69
74 -120 99 -120 33 0 126 37 187 74 146 89 270 219 597 631 355 447 524 594
721 628 175 30 354 -87 527 -346 82 -123 164 -213 240 -266 303 -208 681 -120
1060 249 66 63 148 151 184 195 131 163 258 374 322 537 46 114 48 112 -60
106 -81 -5 -100 -10 -172 -46 -86 -43 -133 -78 -343 -255 -88 -75 -154 -121
-213 -150 -82 -41 -88 -42 -180 -42 -53 1 -108 6 -123 12 -22 10 -53 66 -176
315 -135 273 -273 520 -337 604 -34 44 -94 59 -245 59 -113 0 -133 -3 -204
-29 -155 -57 -233 -120 -549 -439 -229 -231 -290 -288 -298 -277 -21 32 3 226
71 575 66 336 80 441 80 581 0 188 -39 282 -134 325 -78 35 -258 18 -382 -38
-31 -14 -97 -80 -274 -278 -275 -306 -654 -688 -830 -836 -163 -137 -260 -212
-265 -207 -2 2 13 71 35 153 21 83 59 229 84 325 65 252 86 380 93 568 l6 162
-76 0 c-241 0 -502 -114 -764 -334 -124 -104 -335 -323 -574 -596 -295 -337
-483 -522 -634 -623 -71 -48 -205 -28 -264 38 -65 74 -75 196 -40 476 23 189
27 359 9 415 -31 98 -99 143 -214 144 -64 0 -76 -4 -155 -46 -182 -98 -332
-215 -605 -470 -344 -322 -427 -392 -594 -505 -56 -38 -140 -87 -186 -109 -86
-41 -233 -93 -248 -88 -5 2 32 53 83 113 326 388 697 759 1256 1257 660 588
850 757 890 793 l44 40 -14 52 c-31 115 -113 172 -260 181 -161 9 -214 -16
-624 -293 -427 -289 -652 -468 -1774 -1406 -416 -349 -711 -578 -771 -601
-259 -98 -430 196 -477 819 -5 66 -12 126 -15 132 -10 16 -170 13 -245 -4
-129 -31 -260 -119 -368 -250 -94 -114 -158 -222 -339 -575 -243 -477 -320
-596 -472 -742 -75 -71 -167 -136 -178 -125 -8 8 36 287 66 412 122 510 361
967 786 1502 129 162 310 372 564 653 425 471 590 665 768 903 334 444 552
863 673 1290 21 78 57 178 78 222 67 137 85 199 85 301 1 81 -2 94 -24 127
-14 20 -47 49 -74 63 -41 23 -64 27 -140 30 -50 2 -115 -1 -144 -7z m-141
-661 c7 -80 -104 -336 -213 -494 -31 -43 -156 -239 -278 -434 -363 -578 -565
-870 -790 -1140 -106 -127 -369 -397 -427 -438 l-32 -22 21 72 c27 98 99 297
155 426 203 477 552 992 1028 1517 155 170 508 525 523 525 6 0 12 -6 13 -12z"/>
<path d="M19876 9074 c-262 -35 -567 -114 -808 -209 -831 -328 -1442 -900
-1738 -1629 l-40 -99 0 -146 c0 -233 39 -425 128 -631 133 -311 293 -521 787
-1035 307 -320 427 -452 531 -590 148 -194 279 -427 290 -515 8 -65 -23 -138
-114 -267 -42 -60 -86 -129 -96 -154 -86 -206 -163 -306 -311 -404 -82 -55
-242 -132 -252 -121 -8 7 42 94 96 166 27 36 97 117 155 180 l106 114 -27 16
c-20 11 -55 15 -123 14 -172 -1 -328 -71 -801 -357 -255 -153 -430 -248 -536
-289 -36 -14 -43 -22 -55 -59 -7 -24 -13 -92 -13 -150 0 -104 1 -107 42 -191
112 -226 394 -356 636 -293 31 8 141 60 244 116 864 467 1478 979 1975 1646
81 108 109 138 156 166 418 252 549 129 405 -380 -16 -60 -16 -66 1 -130 39
-149 119 -268 209 -315 65 -33 170 -30 268 9 86 34 207 110 324 204 112 90
376 354 612 614 110 121 233 253 274 294 70 71 74 74 80 50 13 -45 9 -349 -6
-494 -67 -638 -316 -1208 -925 -2120 -485 -726 -739 -1165 -790 -1369 -27
-108 -35 -222 -20 -284 27 -114 104 -132 255 -62 295 136 541 359 779 705 41
61 84 121 94 135 11 14 35 54 54 90 20 36 68 124 107 195 104 188 448 876 519
1037 226 511 550 929 1223 1577 589 569 945 939 1095 1139 43 58 101 85 186
86 59 1 95 -24 128 -90 22 -43 25 -64 28 -180 2 -74 -3 -197 -12 -285 -30
-297 -30 -426 -1 -501 6 -15 -1 -14 -49 8 -30 14 -89 32 -130 40 -89 18 -158
8 -218 -31 -50 -33 -95 -127 -109 -230 -35 -253 80 -696 257 -987 46 -75 131
-178 147 -178 15 0 223 146 422 295 412 310 795 672 1047 990 151 191 315 461
393 647 52 121 97 249 91 255 -6 6 -124 -36 -180 -64 -163 -81 -304 -202 -599
-513 -194 -204 -320 -318 -438 -393 l-62 -39 7 64 c7 69 36 236 110 618 54
286 92 523 112 719 20 180 14 529 -10 632 -49 214 -152 347 -306 395 -60 19
-190 24 -281 11 l-56 -8 -159 -181 c-88 -100 -361 -407 -608 -682 -698 -779
-995 -1121 -1292 -1487 l-149 -184 -7 45 c-11 80 25 320 77 504 198 703 225
810 250 988 56 393 -49 562 -323 519 -89 -13 -104 -24 -286 -201 -146 -141
-258 -268 -542 -610 -383 -461 -565 -643 -809 -810 -76 -52 -90 -58 -93 -42
-2 10 9 137 23 283 54 555 64 681 76 912 6 131 8 241 4 245 -3 4 -50 7 -103 6
-146 -1 -279 -47 -397 -137 -132 -102 -200 -176 -444 -486 -259 -330 -402
-469 -570 -553 l-75 -38 -22 89 c-42 171 -134 367 -257 551 -115 171 -228 312
-553 685 -313 361 -454 549 -558 745 -59 111 -112 272 -127 384 -33 258 70
519 307 775 l59 64 0 -86 c0 -95 12 -122 74 -164 102 -69 325 -18 531 122 58
40 174 115 256 165 241 149 333 217 439 324 104 104 146 169 186 283 30 84 36
236 15 343 -26 127 -56 210 -75 209 -9 -1 -60 -7 -115 -15z m-1043 -992 c24
-25 35 -71 25 -109 -16 -62 -105 -99 -209 -87 -32 4 -62 10 -65 15 -8 14 35
88 79 136 66 72 125 88 170 45z"/>
</g>
</svg>
