<?xml version="1.0" standalone="no"?>
<!DOCTYPE svg PUBLIC "-//W3C//DTD SVG 20010904//EN"
 "http://www.w3.org/TR/2001/REC-SVG-20010904/DTD/svg10.dtd">
<svg version="1.0" xmlns="http://www.w3.org/2000/svg"
 width="1920.000000pt" height="858.000000pt" viewBox="0 0 1920.000000 858.000000"
 preserveAspectRatio="xMidYMid meet">

<g transform="translate(0.000000,858.000000) scale(0.100000,-0.100000)"
fill="#000000" stroke="none">
<path d="M5323 8565 c-75 -21 -169 -60 -222 -94 -49 -32 -260 -243 -432 -431
-681 -747 -1098 -1438 -1371 -2265 -27 -82 -68 -183 -91 -224 -52 -91 -182
-231 -337 -361 -260 -219 -380 -367 -434 -535 -16 -50 -17 -51 -107 -94 -50
-25 -157 -82 -238 -129 -524 -302 -706 -335 -1021 -184 -239 115 -359 300
-417 641 -37 223 -25 689 24 886 75 308 195 628 328 882 324 617 749 986 1243
1079 l92 17 71 -28 c135 -53 238 -140 254 -217 13 -58 -4 -114 -59 -195 -261
-385 -444 -857 -540 -1388 -14 -77 -28 -153 -31 -168 -4 -27 -1 -30 63 -60
128 -60 242 -37 326 66 73 89 192 304 308 557 277 603 371 967 355 1370 -8
200 -29 302 -73 359 -49 64 -126 117 -202 142 -85 27 -255 29 -387 5 -296 -55
-376 -84 -600 -219 -549 -331 -936 -689 -1230 -1137 -130 -197 -184 -304 -375
-746 -63 -146 -122 -330 -158 -501 -49 -225 -57 -306 -56 -583 0 -238 2 -264
27 -382 102 -481 349 -775 747 -889 78 -23 145 -24 311 -4 700 82 1149 355
1313 797 l23 63 144 77 c175 95 278 145 344 169 l50 18 6 -62 c4 -34 7 -128 8
-208 0 -80 4 -228 8 -328 l6 -181 76 -38 c68 -33 83 -37 151 -36 59 1 85 6
125 26 125 64 198 146 405 451 188 278 278 376 379 412 66 23 76 20 92 -27 19
-58 78 -146 124 -187 138 -121 365 -120 610 2 68 33 218 128 254 161 23 20 24
20 17 1 -4 -11 -14 -51 -23 -90 -40 -186 39 -342 200 -394 32 -11 45 -10 102
9 96 32 275 125 394 205 116 78 338 260 536 441 113 103 237 212 297 262 17
14 18 4 16 -194 -2 -195 -1 -213 20 -264 29 -73 80 -121 174 -164 190 -88 326
-72 526 61 66 43 151 121 352 323 236 237 339 330 368 330 4 0 19 -12 33 -26
21 -22 24 -35 23 -92 -2 -80 -23 -141 -139 -402 -112 -251 -136 -320 -142
-410 -8 -105 24 -161 106 -189 72 -24 104 -16 183 48 110 88 283 272 478 506
253 305 372 437 485 537 194 173 361 259 425 218 35 -22 4 -127 -84 -280 -39
-67 -44 -84 -49 -155 -6 -88 -36 -182 -131 -415 -97 -235 -111 -372 -49 -481
16 -29 36 -57 44 -62 18 -11 110 23 175 65 80 53 203 184 389 418 256 320 382
440 499 471 60 16 154 7 206 -20 62 -31 150 -121 215 -216 129 -193 257 -275
428 -275 187 0 364 95 563 303 148 155 262 327 329 496 28 73 25 77 -65 68
-81 -7 -151 -44 -266 -140 -165 -138 -187 -155 -243 -183 -93 -48 -241 -42
-257 9 -27 89 -266 538 -332 624 -60 80 -273 75 -415 -8 -90 -53 -126 -86
-327 -288 l-195 -196 -3 66 c-3 68 12 164 68 454 40 201 50 367 26 447 -36
126 -140 157 -324 97 -65 -22 -70 -26 -180 -150 -263 -295 -478 -515 -647
-659 -116 -100 -196 -162 -202 -156 -2 2 14 68 36 147 88 324 121 498 121 649
l0 83 -75 -7 c-304 -28 -520 -182 -961 -686 -176 -200 -316 -342 -417 -419
-56 -43 -59 -44 -118 -38 -33 3 -71 12 -84 21 -62 41 -77 146 -50 356 34 273
17 365 -78 405 -55 23 -101 18 -170 -16 -136 -68 -241 -150 -495 -387 -328
-305 -460 -396 -660 -458 -39 -12 -42 -12 -33 4 20 36 216 255 372 416 163
168 387 379 655 616 663 589 609 536 601 586 -13 76 -99 133 -203 134 -88 0
-136 -18 -265 -99 -348 -222 -643 -448 -1314 -1012 -319 -268 -643 -527 -687
-550 -44 -23 -118 -25 -157 -4 -106 54 -177 256 -201 566 -4 59 -11 113 -15
119 -11 18 -168 7 -225 -15 -71 -28 -166 -101 -223 -170 -68 -82 -122 -175
-252 -430 -131 -256 -168 -320 -243 -421 -61 -82 -183 -194 -212 -194 -8 0 4
105 25 212 66 352 225 690 498 1057 112 153 263 330 566 666 425 471 617 727
789 1045 56 106 135 296 172 420 17 58 41 128 52 155 96 234 105 282 69 354
-30 58 -81 81 -181 80 -41 0 -98 -7 -127 -14z m-83 -569 c-34 -92 -80 -180
-157 -296 -38 -58 -112 -172 -163 -255 -136 -220 -345 -535 -430 -649 -141
-191 -326 -399 -432 -488 l-50 -42 7 35 c17 79 102 295 175 444 196 401 475
772 904 1200 141 141 160 157 164 136 2 -13 -6 -51 -18 -85z"/>
<path d="M14097 8275 c-822 -130 -1527 -649 -1796 -1322 -30 -75 -33 -90 -32
-191 3 -301 104 -553 338 -845 78 -96 122 -144 356 -387 290 -300 424 -469
517 -653 69 -136 67 -157 -28 -295 -36 -53 -79 -128 -95 -167 -36 -87 -92
-163 -159 -216 -61 -48 -228 -134 -228 -118 0 23 92 147 175 236 84 90 85 92
63 105 -13 7 -53 12 -93 12 -119 -2 -258 -64 -555 -248 -148 -92 -401 -226
-426 -226 -36 0 -50 -179 -20 -259 36 -98 131 -186 243 -227 63 -23 84 -26
160 -22 87 4 90 5 228 78 618 324 1108 732 1469 1222 46 63 70 85 128 119 75
44 171 79 215 79 38 0 80 -49 88 -103 8 -51 -6 -150 -35 -243 -17 -56 -17 -67
-5 -114 32 -120 102 -218 173 -241 55 -18 131 -6 213 33 147 70 317 221 630
562 243 264 254 276 262 276 4 0 7 -73 7 -162 -1 -365 -83 -686 -277 -1072
-104 -208 -219 -397 -483 -796 -75 -113 -169 -258 -209 -322 l-74 -118 -6311
-2 -6311 -3 -3 -27 -3 -28 6295 0 c3463 0 6296 -2 6296 -4 0 -2 -16 -33 -36
-68 -112 -196 -154 -316 -154 -434 0 -150 57 -178 212 -105 201 94 395 276
565 528 l55 83 1094 0 c1165 0 1106 -2 1088 44 -6 14 -110 16 -1075 16 l-1070
0 51 93 c76 137 357 699 401 800 43 100 149 288 217 386 157 227 290 379 581
665 525 516 702 697 801 816 57 69 112 130 124 136 73 39 146 23 178 -39 19
-36 22 -58 22 -152 -1 -60 -7 -165 -14 -232 -7 -66 -11 -166 -8 -221 l5 -100
-50 19 c-183 72 -301 -6 -314 -208 -14 -219 97 -565 242 -754 34 -43 52 -59
63 -54 29 11 308 215 440 321 397 318 677 634 847 957 51 97 104 222 119 280
9 37 -8 35 -110 -12 -123 -58 -215 -133 -402 -328 -92 -96 -201 -204 -242
-240 -71 -61 -157 -120 -164 -112 -6 6 20 161 69 414 71 368 97 558 102 751 6
184 -3 266 -39 370 -38 111 -105 182 -203 214 -42 14 -184 18 -222 6 -12 -4
-68 -60 -125 -124 -128 -145 -620 -695 -628 -702 -47 -41 -621 -708 -845 -982
l-27 -33 5 105 c6 113 31 227 116 523 101 352 137 531 129 651 -11 165 -90
232 -252 212 -51 -7 -61 -13 -138 -84 -123 -113 -238 -239 -456 -502 -263
-316 -455 -505 -624 -615 l-28 -17 0 36 c0 31 17 217 35 376 24 210 38 447 36
599 l-1 53 -87 -4 c-205 -11 -304 -85 -578 -428 -196 -246 -309 -359 -413
-413 l-71 -38 -6 28 c-53 241 -195 471 -530 853 -289 331 -386 459 -470 622
-155 301 -122 547 109 812 27 31 52 56 55 56 3 0 5 -20 3 -44 -5 -58 20 -110
63 -130 73 -35 223 -7 329 60 24 16 121 78 215 137 207 131 277 183 353 261
140 143 179 334 110 536 -22 65 -27 66 -165 45z m-698 -736 c33 -60 -23 -119
-114 -119 -78 0 -84 9 -45 69 41 65 66 82 110 79 25 -2 38 -10 49 -29z"/>
<path d="M11237 1885 c-51 -18 -85 -50 -110 -105 -17 -37 -21 -72 -25 -192
l-4 -146 -67 -12 c-105 -18 -101 -14 -101 -76 l0 -54 85 0 85 0 2 -407 3 -408
65 0 65 0 3 407 2 407 133 3 132 3 3 68 3 67 -136 0 -135 0 0 120 c0 150 11
184 67 199 21 6 91 11 156 11 l117 0 0 44 c0 43 -1 44 -42 55 -132 35 -235 40
-301 16z"/>
<path d="M1012 1143 l3 -658 65 0 65 0 3 658 2 657 -70 0 -70 0 2 -657z"/>
<path d="M8202 1143 l3 -658 65 0 65 0 3 283 c2 260 4 282 20 282 9 0 82 -7
162 -15 80 -8 182 -15 227 -15 151 0 235 52 284 176 20 53 23 76 23 214 0 134
-2 162 -20 206 -30 74 -66 117 -126 150 l-53 29 -328 3 -327 3 2 -658z m645
491 c55 -40 68 -85 68 -229 0 -146 -11 -180 -75 -222 -32 -22 -41 -23 -266
-23 l-234 0 0 251 0 250 239 -3 c224 -3 241 -4 268 -24z"/>
<path d="M4262 1728 c-16 -16 -16 -150 0 -166 7 -7 40 -12 80 -12 80 0 88 8
88 99 0 79 -13 91 -94 91 -35 0 -67 -5 -74 -12z"/>
<path d="M5402 1728 c-7 -7 -12 -42 -12 -89 0 -88 1 -89 85 -89 85 0 85 0 85
95 0 66 -3 84 -16 89 -28 11 -130 6 -142 -6z"/>
<path d="M1790 1453 c-56 -9 -149 -45 -212 -82 l-66 -39 -19 52 -18 51 -53 3
-52 3 2 -478 3 -478 68 -3 67 -3 0 370 0 371 68 31 c139 64 289 86 358 53 19
-9 44 -31 57 -48 22 -30 22 -38 27 -401 l5 -370 65 0 65 0 0 375 0 375 -28 57
c-62 127 -186 186 -337 161z"/>
<path d="M6180 1453 c-62 -10 -162 -53 -247 -104 l-32 -20 -17 56 -18 55 -48
0 -48 0 0 -480 0 -480 65 0 65 0 0 368 0 369 78 36 c186 87 344 89 406 4 20
-27 21 -44 26 -400 l5 -372 68 -3 67 -3 0 364 c0 431 -1 438 -90 529 -43 44
-67 60 -109 72 -52 15 -115 18 -171 9z"/>
<path d="M15305 1444 c-60 -7 -130 -19 -155 -27 l-45 -13 0 -49 c0 -49 0 -50
30 -47 110 10 439 19 467 13 85 -20 108 -57 108 -181 l0 -80 -232 0 c-265 0
-284 -5 -349 -77 -43 -48 -59 -107 -59 -222 0 -138 39 -219 127 -262 95 -47
263 -22 444 65 29 14 58 26 64 26 5 0 17 -24 25 -52 l15 -53 50 0 50 0 0 395
0 395 -24 48 c-28 57 -95 111 -158 126 -56 14 -222 12 -358 -5z m405 -617 l0
-124 -27 -12 c-64 -29 -270 -74 -345 -75 -68 -1 -80 2 -100 22 -20 19 -23 35
-26 111 -4 97 9 140 50 162 21 11 260 34 391 38 l57 1 0 -123z"/>
<path d="M16446 1448 c-26 -6 -94 -34 -151 -63 l-102 -52 -17 54 -17 53 -50 0
-49 0 0 -480 0 -481 68 3 67 3 2 365 1 365 74 37 c90 46 199 72 279 66 67 -5
103 -26 134 -79 19 -32 20 -55 23 -396 l3 -363 65 0 64 0 0 370 c0 411 -2 424
-69 509 -64 80 -198 117 -325 89z"/>
<path d="M2467 1436 c-55 -15 -90 -45 -120 -101 -19 -35 -21 -57 -21 -170 0
-119 2 -134 24 -175 19 -33 38 -51 75 -70 48 -24 60 -25 273 -30 206 -5 225
-7 238 -24 35 -48 32 -192 -4 -229 -22 -21 -29 -22 -297 -25 l-275 -3 0 -49 0
-49 43 -6 c111 -15 275 -25 402 -25 115 0 147 4 180 19 85 39 105 87 105 250
0 129 -14 174 -66 223 -50 47 -76 52 -306 57 -263 7 -251 2 -257 127 -3 89 8
137 37 150 10 5 137 10 285 12 l267 3 0 50 c0 27 -1 49 -2 50 -2 0 -68 6 -148
13 -197 17 -374 18 -433 2z"/>
<path d="M3630 1434 c-30 -8 -91 -31 -135 -50 -44 -19 -84 -36 -89 -37 -5 -1
-16 19 -24 46 l-16 47 -48 0 -48 0 0 -720 0 -720 65 0 65 0 0 269 0 269 62
-19 c34 -11 99 -26 146 -34 262 -46 377 15 432 231 44 167 35 401 -21 550 -58
154 -205 217 -389 168z m182 -130 c29 -9 77 -72 94 -126 9 -31 18 -105 21
-179 9 -200 -22 -328 -89 -369 -52 -32 -201 -28 -385 11 l-53 10 0 293 0 292
83 27 c156 50 252 62 329 41z"/>
<path d="M4965 1426 c-39 -12 -99 -39 -133 -59 -35 -20 -67 -37 -71 -37 -4 0
-15 25 -25 55 l-17 55 -50 0 -49 0 2 -477 3 -478 65 0 65 0 3 363 2 363 74 35
c113 52 176 65 301 63 l110 -2 3 63 c2 44 -1 66 -10 71 -7 5 -56 9 -108 8 -71
0 -113 -6 -165 -23z"/>
<path d="M6974 1440 c-143 -29 -214 -112 -236 -275 -9 -64 -9 -100 1 -154 12
-69 46 -136 78 -155 12 -6 8 -12 -17 -27 -72 -44 -90 -168 -36 -249 l27 -41
-31 -51 c-31 -50 -32 -55 -31 -166 0 -144 16 -196 76 -251 66 -61 114 -71 342
-71 109 0 214 5 238 11 59 15 117 67 146 131 21 47 23 68 24 183 0 102 -4 140
-18 177 -22 56 -81 113 -134 127 -21 6 -135 11 -263 11 -188 0 -229 3 -248 16
-28 20 -30 69 -3 84 12 6 94 10 199 10 220 0 263 10 331 78 66 67 96 155 96
282 0 78 -4 104 -23 144 -12 27 -20 51 -18 53 2 3 34 11 71 20 l66 15 -3 51
-3 52 -295 2 c-162 0 -313 -3 -336 -7z m333 -156 c48 -36 66 -79 71 -168 3
-73 1 -86 -25 -136 -41 -81 -66 -90 -234 -90 -125 0 -139 2 -169 23 -46 31
-72 86 -78 165 -5 78 9 141 41 177 38 44 88 55 234 53 116 -3 135 -6 160 -24z
m65 -795 c39 -16 51 -62 46 -178 -4 -107 -19 -144 -64 -161 -38 -15 -394 -12
-423 3 -13 6 -34 25 -45 40 -19 25 -21 45 -24 170 l-3 142 243 -3 c140 -2 254
-7 270 -13z"/>
<path d="M9472 1439 c-99 -17 -173 -73 -211 -159 -52 -117 -55 -459 -5 -628
20 -72 79 -136 146 -158 67 -22 381 -15 506 11 l82 18 0 54 0 54 -48 -7 c-27
-3 -146 -7 -265 -8 -204 -1 -217 0 -244 20 -47 35 -63 75 -70 168 l-6 85 254
3 254 3 48 28 c71 42 91 88 91 207 -1 168 -36 239 -143 288 -50 23 -70 26
-196 28 -77 2 -164 -1 -193 -7z m303 -139 c58 -13 82 -46 91 -126 15 -144 -5
-154 -295 -154 l-214 0 5 83 c7 127 47 185 138 200 49 8 236 6 275 -3z"/>
<path d="M10522 1426 c-40 -13 -100 -40 -133 -60 -33 -20 -64 -36 -68 -36 -4
0 -15 25 -25 55 l-17 55 -50 0 -49 0 2 -477 3 -478 65 0 65 0 3 363 2 363 74
35 c113 52 176 65 301 63 l110 -2 3 63 c2 44 -1 66 -10 71 -7 5 -56 9 -108 8
-72 0 -113 -6 -168 -23z"/>
<path d="M11940 1440 c-189 -40 -257 -142 -276 -413 -7 -109 8 -257 37 -343
26 -82 73 -134 151 -170 62 -28 66 -29 233 -29 155 0 175 2 228 23 96 39 139
94 174 223 24 91 24 368 0 458 -36 134 -96 204 -201 237 -61 19 -279 28 -346
14z m316 -149 c91 -41 109 -96 109 -336 0 -162 -2 -185 -21 -226 -43 -93 -130
-126 -304 -115 -79 5 -101 10 -139 33 -81 51 -108 150 -98 358 9 189 43 265
129 292 18 6 89 11 158 12 102 0 133 -3 166 -18z"/>
<path d="M13045 1426 c-38 -13 -98 -40 -133 -60 -35 -21 -67 -35 -70 -31 -4 3
-14 27 -23 53 l-16 47 -51 3 -52 3 2 -478 3 -478 65 0 65 0 3 363 2 363 77 35
c110 51 189 66 311 62 l102 -3 0 66 c0 52 -4 68 -16 73 -9 3 -57 6 -107 6 -68
-1 -110 -7 -162 -24z"/>
<path d="M13828 1431 c-31 -10 -90 -37 -132 -60 l-75 -41 -17 55 -18 55 -48 0
-48 0 0 -480 0 -480 65 0 65 0 0 369 0 369 83 35 c99 43 160 58 242 60 70 1
112 -17 147 -65 23 -33 23 -36 28 -398 l5 -365 65 0 65 0 3 367 2 368 60 30
c81 41 162 61 257 62 91 2 131 -15 166 -72 21 -34 22 -45 25 -398 l3 -363 67
3 67 3 0 365 c0 414 -2 424 -79 508 -68 74 -103 87 -231 87 -129 0 -206 -22
-306 -86 l-62 -40 -29 36 c-50 60 -118 88 -223 92 -68 2 -104 -2 -147 -16z"/>
<path d="M17245 1441 c-155 -41 -215 -173 -215 -474 0 -229 28 -343 101 -416
67 -67 102 -75 302 -68 109 4 201 13 252 24 l80 18 3 54 3 54 -68 -6 c-165
-15 -369 -19 -409 -8 -51 14 -90 52 -104 100 -39 135 -33 427 10 515 36 76 49
79 318 75 l237 -4 0 50 0 49 -100 18 c-112 20 -364 32 -410 19z"/>
<path d="M18172 1439 c-29 -5 -70 -18 -91 -29 -131 -66 -167 -178 -158 -489 7
-259 35 -346 131 -406 49 -30 51 -30 208 -33 156 -4 274 6 373 31 l50 12 3 53
3 53 -49 -7 c-27 -3 -145 -7 -263 -8 -199 -1 -217 0 -249 19 -44 26 -69 93
-70 188 l0 67 233 0 c133 0 248 5 270 11 50 14 113 71 128 117 16 50 13 192
-6 258 -20 69 -61 115 -127 144 -46 20 -73 24 -193 26 -77 2 -164 -1 -193 -7z
m335 -147 c32 -18 50 -57 58 -127 15 -134 -8 -145 -296 -145 l-211 0 4 90 c4
80 7 95 34 132 23 33 40 46 74 55 58 16 306 12 337 -5z"/>
<path d="M4270 960 l0 -480 65 0 65 0 0 480 0 480 -65 0 -65 0 0 -480z"/>
<path d="M5402 963 l3 -478 68 -3 67 -3 0 481 0 480 -70 0 -70 0 2 -477z"/>
</g>
</svg>
