<?xml version="1.0" standalone="no"?>
<!DOCTYPE svg PUBLIC "-//W3C//DTD SVG 20010904//EN"
 "http://www.w3.org/TR/2001/REC-SVG-20010904/DTD/svg10.dtd">
<svg version="1.0" xmlns="http://www.w3.org/2000/svg"
 width="400.000000pt" height="55.000000pt" viewBox="0 0 400.000000 55.000000"
 preserveAspectRatio="xMidYMid meet">

<g transform="translate(0.000000,55.000000) scale(0.100000,-0.100000)"
fill="#000000" stroke="none">
<path d="M360 461 l0 -59 -55 -4 c-35 -3 -63 -12 -76 -24 -72 -64 -62 -224 17
-254 37 -15 86 -12 111 5 14 10 24 12 28 5 3 -5 24 -10 46 -10 l39 0 0 200 0
200 -55 0 -55 0 0 -59z m-2 -205 c-3 -47 -5 -51 -29 -54 -22 -3 -27 2 -32 27
-11 53 16 96 51 83 9 -3 12 -21 10 -56z"/>
<path d="M1627 514 c-4 -4 -7 -90 -7 -191 0 -176 1 -183 20 -183 19 0 20 7 20
93 0 106 9 123 72 134 54 8 68 -19 68 -134 0 -76 3 -93 15 -93 22 0 22 196 0
227 -23 32 -68 38 -115 15 l-39 -19 -3 75 c-3 69 -13 94 -31 76z"/>
<path d="M2530 336 c0 -173 1 -186 19 -196 11 -5 27 -10 35 -10 23 0 20 27 -4
33 -18 5 -20 15 -22 178 -2 127 -6 173 -15 177 -10 3 -13 -38 -13 -182z"/>
<path d="M3270 481 c0 -26 17 -36 35 -21 18 15 8 40 -16 40 -12 0 -19 -7 -19
-19z"/>
<path d="M520 306 l0 -186 99 0 c136 0 192 25 206 92 6 28 -10 88 -24 88 -3 0
-12 4 -20 9 -12 7 -10 14 8 36 24 31 26 53 10 88 -17 38 -55 50 -171 55 l-108
4 0 -186z m158 95 c21 -13 10 -46 -16 -49 -19 -3 -22 1 -22 27 0 31 13 39 38
22z m18 -145 c25 -19 8 -50 -30 -54 -24 -3 -26 0 -26 32 0 40 20 48 56 22z"/>
<path d="M840 475 c0 -12 13 -15 55 -15 l55 0 0 -160 c0 -153 1 -160 20 -160
19 0 20 7 20 160 l0 160 55 0 c42 0 55 3 55 15 0 13 -21 15 -130 15 -109 0
-130 -2 -130 -15z"/>
<path d="M1171 387 c-50 -18 -73 -66 -68 -141 3 -51 8 -63 35 -87 26 -23 42
-29 80 -29 59 0 94 9 89 23 -2 6 -28 10 -64 8 -51 -2 -65 1 -82 18 -12 12 -21
27 -21 35 0 8 -3 21 -6 30 -5 14 6 16 85 16 l91 0 0 36 c0 48 -15 73 -55 90
-40 16 -40 16 -84 1z m89 -37 c11 -11 20 -29 20 -40 0 -18 -7 -20 -75 -20
l-75 0 11 27 c20 53 81 71 119 33z"/>
<path d="M2013 393 c-12 -2 -27 -11 -33 -19 -16 -18 -30 -18 -30 1 0 8 -7 15
-15 15 -13 0 -15 -21 -15 -125 0 -104 2 -125 15 -125 12 0 15 17 15 89 0 87 1
90 31 115 38 33 82 34 103 4 12 -16 16 -47 16 -115 0 -76 3 -93 15 -93 12 0
15 17 15 93 0 115 -5 134 -41 152 -28 15 -36 16 -76 8z"/>
<path d="M2283 389 c-86 -25 -108 -163 -37 -230 21 -19 36 -24 81 -24 50 0 57
3 89 37 29 33 34 45 34 88 0 65 -22 108 -65 126 -39 16 -56 16 -102 3z m88
-29 c52 -28 63 -129 18 -176 -28 -29 -86 -32 -119 -6 -27 22 -38 98 -21 141
19 44 78 64 122 41z"/>
<path d="M2713 385 c-93 -40 -98 -203 -8 -241 102 -42 195 31 182 144 -5 49
-28 79 -74 98 -40 17 -59 17 -100 -1z m90 -26 c52 -24 66 -131 22 -174 -34
-35 -96 -35 -124 0 -27 35 -35 78 -21 120 19 58 68 79 123 54z"/>
<path d="M3463 389 c-62 -18 -95 -97 -74 -176 14 -51 39 -73 90 -80 51 -7 111
4 111 20 0 10 -17 12 -63 9 -60 -4 -65 -2 -85 23 -12 15 -22 38 -22 51 0 23 2
24 90 24 l90 0 0 35 c0 24 -8 44 -27 64 -32 34 -65 42 -110 30z m75 -36 c11
-10 23 -28 27 -40 6 -22 4 -23 -69 -23 -85 0 -96 11 -51 55 28 29 65 32 93 8z"/>
<path d="M3698 384 c-15 -8 -30 -25 -34 -39 -11 -42 5 -66 62 -92 43 -19 54
-29 54 -48 0 -35 -24 -48 -75 -43 -32 4 -45 2 -45 -7 0 -28 74 -34 120 -10 32
17 47 62 31 94 -6 10 -31 27 -56 37 -50 18 -65 36 -57 66 5 21 40 33 77 26 32
-7 34 17 3 26 -34 9 -50 7 -80 -10z"/>
<path d="M1416 367 c-46 -46 -55 -138 -18 -194 18 -29 79 -48 126 -39 56 11
47 34 -12 28 -37 -3 -53 0 -72 16 -22 18 -25 28 -25 82 0 56 3 64 29 87 25 22
36 24 74 19 32 -4 43 -3 40 7 -3 7 -27 13 -61 15 -49 3 -60 0 -81 -21z"/>
<path d="M3002 375 c-32 -23 -52 -67 -52 -115 0 -102 69 -154 149 -112 l41 22
0 -36 c0 -55 -35 -84 -105 -84 -59 0 -74 -14 -25 -25 46 -10 110 4 137 31 23
23 23 27 21 176 l-3 153 -70 3 c-51 2 -76 -2 -93 -13z m122 -11 c13 -5 16 -22
16 -79 0 -69 -2 -75 -31 -99 -35 -30 -79 -34 -102 -8 -38 42 -29 146 16 177
22 15 73 20 101 9z"/>
<path d="M3230 381 c0 -5 10 -11 23 -13 21 -3 22 -7 25 -115 2 -91 5 -113 17
-113 12 0 15 22 15 125 l0 125 -40 0 c-22 0 -40 -4 -40 -9z"/>
</g>
</svg>
