<svg version="1.1" id="Layer_1" xmlns="http://www.w3.org/2000/svg" xmlns:xlink="http://www.w3.org/1999/xlink" x="0px" y="0px" viewBox="0 0 1920 420" style="enable-background:new 0 0 1920 420;" xml:space="preserve"><style type="text/css">.st0{fill:#FFFFFF;}</style><title>electrovoice_white</title><path class="st0" d="M0.5,401.5l0.4,0.3l0.5,0.2l0.5,0.1h380.8l0.5-0.1l0.5-0.2l0.4-0.3l0.3-0.4l0.2-0.5l0.1-0.5V19.3l-0.1-0.5l-0.2-0.5L384,18l-0.4-0.3l-0.5-0.2l-0.5-0.1H1.9l-0.5,0.1l-0.5,0.2L0.5,18l-0.3,0.4l-0.2,0.5L0,19.3v380.8l0.1,0.5v0.1l0.1,0.4L0.5,401.5z M25.3,42.8h333.9v333.9H25.3V42.8z"></path><path class="st0" d="M37.9,361.5l0.5,0.9l0.7,0.8l0.8,0.6l0.9,0.5l1,0.3l1,0.1h299.6l1-0.1l1-0.3l0.9-0.5l0.8-0.6l0.6-0.8l0.5-0.9l0.3-1l0.1-1V59.8l-0.1-1l-0.3-1l-0.5-0.9l-0.6-0.8l-0.8-0.7l-0.9-0.5l-1-0.3l-1-0.1H42.7l-1,0.1l-1,0.3l-0.9,0.5L39,56.2l-0.7,0.8l-0.5,0.9l-0.3,1l-0.1,1v299.7l0.1,1L37.9,361.5z M74.5,259.7V94.9v-0.3l0.1-0.3l0.1-0.2l0.2-0.2l0.2-0.2l0.3-0.1l0.2-0.1h0.3h93.5h0.3l0.3,0.1l0.2,0.1l0.2,0.2l0.2,0.2l0.2,0.2l0.1,0.3v0.3v32.5v0.3l-0.1,0.3l-0.2,0.2l-0.2,0.2l-0.2,0.2l-0.2,0.1l-0.3,0.1h-56.7h-0.3l-0.3,0.1l-0.3,0.1l-0.2,0.2l-0.2,0.2l-0.1,0.2l-0.1,0.3v0.3v26.7v0.3l0.1,0.3l0.1,0.2l0.2,0.2l0.2,0.2l0.3,0.1l0.3,0.1h0.3h56.5h0.3l0.3,0.1l0.2,0.1l0.2,0.2l0.2,0.2l0.2,0.3l0.1,0.2v0.3v33.1v0.3l-0.1,0.2l-0.2,0.2l-0.2,0.2l-0.2,0.2l-0.2,0.1l-0.3,0.1h-0.3h-56.8h-0.3l-0.3,0.1l-0.3,0.1l-0.2,0.2l-0.2,0.2l-0.1,0.3l-0.1,0.3v0.3v28.1v0.3l0.1,0.3l0.1,0.2l0.2,0.2l0.2,0.2l0.3,0.1l0.3,0.1h0.3H170l0.3,0.1l0.2,0.1l0.2,0.2l0.2,0.2l0.1,0.2l0.1,0.3v0.2v33.6v0.3l-0.1,0.3l-0.1,0.3l-0.2,0.2l-0.2,0.2l-0.2,0.1l-0.3,0.1h-0.3H75.9h-0.3l-0.2-0.1l-0.3-0.1l-0.2-0.2l-0.2-0.2l-0.1-0.3l-0.1-0.3L74.5,259.7z M207.4,313.8v-120h-14h-0.3l-0.3-0.1l-0.3-0.1l-0.2-0.2l-0.2-0.2l-0.1-0.2l-0.1-0.2v-0.3v-32.9v-0.3l0.1-0.3l0.1-0.2l0.2-0.2l0.2-0.2l0.3-0.1l0.3-0.1h0.3h47.7h0.3l0.3,0.1l0.2,0.1l0.2,0.2l0.2,0.2l0.1,0.2l0.1,0.3v56.4v0.2l0.1,0.3l0.1,0.2l0.1,0.2l0.2,0.2l0.2,0.1l0.2,0.1l0.2,0.1h0.2h0.3l0.2-0.1l0.2-0.1l0.2-0.2l0.2-0.2l0.1-0.2l38.5-89.7l0.1-0.2l0.2-0.2l0.2-0.2l0.2-0.1l0.3-0.1h0.3h37.1h0.2l0.3,0.1l0.2,0.1l0.2,0.2l0.2,0.2l0.1,0.2l0.1,0.2l0,0.2v0.2v0.2l-0.1,0.2l-79.4,186.6l-0.1,0.2l-0.2,0.2l-0.2,0.2l-0.2,0.1l-0.3,0.1h-0.3h-33.7h-0.3l-0.3-0.1L208,315l-0.2-0.2l-0.2-0.2l-0.1-0.2l-0.1-0.3L207.4,313.8z"></path><path class="st0" d="M480.8,139.3h128V164h-93.6v30.9h90.5v24.3h-90.5v32.9h97.5v24.5H480.8V139.3z"></path><path class="st0" d="M629.3,139.3h31.9v137.4h-31.9V139.3z"></path><path class="st0" d="M708.3,232.9c0.8,3.1,2.5,9.1,6,13.2c6.8,8.2,17.7,11.3,28.2,11.3c20.8,0,28.4-9.9,31.3-13.6l33.3,3.3c-14.4,23.7-38.5,33.5-66.2,33.5c-16.7,0-34.1-3.1-47.1-13.8c-13-10.5-18.5-26.3-18.5-40.3c0-36.2,30.9-52.2,66-52.2c13.4,0,36.2,2.9,51.2,18.9c13,13.8,13.2,29.6,13.4,39.7L708.3,232.9z M770.6,215.2c-0.6-5.6-3.9-10.5-8.8-13.3c-4.7-2.7-12.5-5.1-21-5.1c-7.6,0-16.2,1.8-22,5.7c-5.6,3.7-7.6,8-9.5,12.6H770.6z"></path><path class="st0" d="M943.4,246.1c-13.7,26.7-42.8,34.6-63.3,34.6c-32.7,0-63.4-18.5-63.4-53.5c0-39.7,37.4-53.1,65-53.1c13.4,0,30.8,3.3,43.8,12.5c7,4.8,12.5,11.4,16,19.1l-33.5,3.9c-2.7-3.5-9.3-11.3-26.3-11.3c-18.7,0-32.5,12.3-32.5,28.8c0,12.8,9.3,29.2,32.1,29.2c7.1,0.1,14.2-1.7,20.4-5.3c6.2-3.7,7.6-6.8,9-9.3L943.4,246.1z"></path><path class="st0" d="M962.3,151.9h31.9v26.3h22v19.1h-22v44.6c0,9.5,3.3,11.7,12.5,11.7c3.2,0,6.5-0.2,9.7-0.6v23c-7.8,0.8-15.6,1.5-23.3,1.5c-6.8,0-13.6-0.8-19.1-3.5c-11.5-6-11.7-16.5-11.7-23.9v-52.8h-16v-19.1h16V151.9z"></path><path class="st0" d="M1066.6,195.1c4.7-7.4,12.7-19.6,41.3-20.2v29c-2.8-0.2-5.1-0.4-8.4-0.4c-2.7,0-13.8,0.2-21.4,4.3c-9.9,5.3-11.5,12.8-11.5,21.4v47.5h-32.3v-98.5h32.3L1066.6,195.1z"></path><path class="st0" d="M1246.6,225.9c0,35.8-30.4,54.9-67.3,54.9c-40.3,0-67.7-20.8-67.7-53.3c0-33.1,29.6-53.9,68.9-53.7C1223.6,173.9,1246.6,197.8,1246.6,225.9z M1144.8,227.9c0,5.5,2.2,29.2,34.6,29.2c26.5,0,34.1-16.9,34.1-30.5c0-17.5-13.6-30.4-36-29.2C1154.2,198.5,1144.8,212.7,1144.8,227.9L1144.8,227.9z"></path><path class="st0" d="M1263.1,210.3h55.1v24.2h-55.1V210.3z"></path><path class="st0" d="M1309.7,139.3h37.9l36.8,90.1c1.7,4.2,3.1,8.6,4.1,13c1.8-6.2,2.2-7.8,4.5-13l37-90.1h37l-61.7,137.4h-33.5L1309.7,139.3z"></path><path class="st0" d="M1588.2,225.9c0,35.8-30.4,54.9-67.3,54.9c-40.3,0-67.7-20.8-67.7-53.3c0-33.1,29.6-53.9,68.9-53.7C1565.2,173.9,1588.2,197.8,1588.2,225.9z M1486.4,227.9c0,5.5,2.2,29.2,34.6,29.2c26.5,0,34-16.9,34-30.5c0-17.5-13.6-30.4-36-29.2C1495.7,198.5,1486.4,212.7,1486.4,227.9L1486.4,227.9z"></path><path class="st0" d="M1637.5,143.9v21.8h-31.9v-21.8H1637.5z M1637.5,178.2v98.5h-31.9v-98.5H1637.5z"></path><path class="st0" d="M1781.3,246.1c-13.6,26.7-42.8,34.6-63.3,34.6c-32.7,0-63.4-18.5-63.4-53.5c0-39.7,37.3-53.1,65-53.1c13.4,0,30.8,3.3,43.8,12.5c7,4.8,12.5,11.4,16,19.1l-33.5,3.9c-2.7-3.5-9.3-11.3-26.3-11.3c-18.7,0-32.5,12.3-32.5,28.8c0,12.8,9.3,29.2,32.1,29.2c7.2,0.1,14.2-1.7,20.4-5.3c6.2-3.7,7.6-6.8,8.9-9.3L1781.3,246.1z"></path><path class="st0" d="M1821.2,232.9c0.8,3.1,2.5,9.1,6,13.2c6.8,8.2,17.7,11.3,28.2,11.3c20.8,0,28.4-9.9,31.3-13.6l33.3,3.3c-14.4,23.7-38.5,33.5-66.2,33.5c-16.7,0-34.1-3.1-47.1-13.8c-13-10.5-18.5-26.3-18.5-40.3c0-36.2,30.9-52.2,66-52.2c13.4,0,36.2,2.9,51.2,18.9c13.1,13.8,13.3,29.6,13.4,39.7L1821.2,232.9z M1883.4,215.2c-0.6-5.6-3.9-10.5-8.8-13.3c-4.7-2.7-12.4-5.1-21-5.1c-7.6,0-16.2,1.8-22,5.7c-5.7,3.7-7.6,8-9.5,12.6H1883.4z"></path></svg>