<?xml version="1.0" standalone="no"?>
<!DOCTYPE svg PUBLIC "-//W3C//DTD SVG 20010904//EN"
 "http://www.w3.org/TR/2001/REC-SVG-20010904/DTD/svg10.dtd">
<svg version="1.0" xmlns="http://www.w3.org/2000/svg"
 width="1920.000000pt" height="420.000000pt" viewBox="0 0 1920.000000 420.000000"
 preserveAspectRatio="xMidYMid meet">

<g transform="translate(0.000000,420.000000) scale(0.100000,-0.100000)"
fill="#000000" stroke="none">
<path d="M5 4018 c-3 -7 -4 -872 -3 -1923 l3 -1910 1920 0 1920 0 3 1909 c1
1403 -1 1912 -9 1922 -16 20 -3827 21 -3834 2z m3585 -1918 l0 -1670 -1668 2
-1667 3 -3 1668 -2 1667 1670 0 1670 0 0 -1670z"/>
<path d="M386 3628 c-14 -20 -16 -181 -16 -1524 l0 -1501 21 -27 20 -26 1513
0 c1290 0 1515 2 1532 14 19 14 19 43 22 1527 2 1345 0 1515 -13 1536 l-15 23
-1525 0 -1524 0 -15 -22z m1322 -540 l-3 -173 -295 -5 -295 -5 0 -140 0 -140
295 -5 295 -5 3 -177 2 -178 -297 -2 -298 -3 -3 -152 -3 -153 301 0 300 0 -2
-182 -3 -183 -475 0 -475 0 -3 838 -2 837 480 0 480 0 -2 -172z m1522 -157 c0
-10 -771 -1825 -790 -1861 -10 -20 -19 -20 -188 -18 l-177 3 -3 603 -2 602
-75 0 -75 0 0 180 0 180 250 0 250 0 0 -282 c0 -251 6 -325 24 -307 3 3 91
205 196 449 106 245 194 448 196 452 7 11 394 10 394 -1z"/>
<path d="M4810 2120 l0 -690 658 2 657 3 3 123 3 122 -491 0 -490 0 0 165 0
165 455 0 455 0 0 120 0 120 -455 0 -455 0 0 155 0 155 470 0 470 0 0 125 0
125 -640 0 -640 0 0 -690z"/>
<path d="M6295 2798 c-3 -7 -4 -317 -3 -688 l3 -675 158 -3 157 -3 0 691 0
690 -155 0 c-115 0 -157 -3 -160 -12z"/>
<path d="M13101 2803 c0 -5 139 -314 308 -688 l308 -680 168 0 169 0 307 685
308 685 -181 3 c-139 2 -183 -1 -189 -10 -14 -23 -397 -962 -405 -993 l-8 -30
-13 45 c-7 25 -99 258 -205 517 l-193 473 -187 0 c-104 0 -188 -3 -187 -7z"/>
<path d="M16060 2650 l0 -111 158 3 157 3 3 108 3 107 -161 0 -160 0 0 -110z"/>
<path d="M9620 2550 l0 -130 -80 0 -80 0 0 -95 0 -95 79 0 80 0 3 -312 c3
-295 4 -316 24 -359 26 -55 75 -95 140 -115 49 -15 265 -19 337 -8 l37 7 0
113 0 113 -67 -2 c-151 -4 -153 0 -153 323 l0 240 110 0 110 0 0 95 0 95 -110
0 -110 0 0 130 0 130 -160 0 -160 0 0 -130z"/>
<path d="M7286 2449 c-218 -30 -389 -125 -469 -261 -91 -155 -81 -390 24 -547
97 -145 241 -219 472 -241 244 -24 480 42 625 174 54 50 136 145 129 152 -1 2
-75 11 -164 20 l-162 16 -38 -37 c-21 -21 -63 -50 -93 -64 -50 -24 -66 -26
-180 -26 -109 0 -131 3 -176 23 -67 30 -130 96 -154 160 l-20 52 491 0 492 0
-7 73 c-14 151 -56 247 -148 339 -68 67 -185 128 -293 152 -93 20 -242 27
-329 15z m257 -239 c71 -22 119 -56 142 -101 32 -61 44 -59 -285 -59 -245 0
-300 2 -300 13 0 23 56 93 92 115 85 53 239 66 351 32z"/>
<path d="M8685 2450 c-146 -23 -293 -91 -377 -175 -95 -95 -138 -203 -138
-350 0 -245 161 -435 427 -506 110 -30 296 -30 408 0 108 28 228 89 296 150
54 48 136 157 126 167 -2 2 -74 14 -159 26 l-156 21 -37 -41 c-20 -23 -62 -54
-93 -69 -52 -25 -67 -28 -167 -28 -100 0 -115 2 -160 27 -174 92 -215 317 -82
450 120 121 370 126 479 11 l28 -29 162 19 c90 10 165 20 167 22 10 10 -55 98
-109 148 -107 99 -262 155 -450 162 -58 2 -132 0 -165 -5z"/>
<path d="M11600 2441 c-244 -52 -415 -193 -466 -385 -16 -60 -18 -192 -3 -255
26 -116 126 -245 239 -308 123 -70 321 -111 480 -99 377 28 610 232 612 536 3
269 -177 460 -482 516 -105 19 -277 16 -380 -5z m341 -236 c81 -29 152 -98
177 -174 17 -48 15 -159 -4 -213 -22 -67 -73 -120 -146 -154 -58 -27 -72 -29
-179 -29 -113 0 -118 1 -185 35 -111 56 -161 149 -152 281 13 180 165 289 381
273 38 -3 86 -12 108 -19z"/>
<path d="M15057 2450 c-157 -27 -283 -87 -378 -180 -116 -115 -166 -264 -140
-421 33 -212 187 -363 436 -430 114 -31 345 -31 460 0 280 74 445 265 445 516
0 318 -266 527 -665 524 -60 -1 -132 -5 -158 -9z m285 -240 c53 -15 128 -69
160 -115 51 -75 61 -200 24 -289 -22 -54 -91 -121 -149 -147 -44 -20 -69 -23
-162 -24 -129 0 -190 17 -253 71 -125 107 -129 321 -8 432 86 80 250 110 388
72z"/>
<path d="M17100 2454 c-14 -2 -52 -9 -85 -15 -139 -25 -298 -113 -364 -203
-83 -110 -106 -192 -99 -345 5 -94 8 -108 46 -185 70 -140 201 -240 379 -288
109 -29 295 -29 408 1 101 26 226 88 288 142 47 40 144 166 135 175 -3 2 -75
13 -161 25 l-155 21 -37 -41 c-56 -62 -132 -94 -237 -99 -124 -6 -186 15 -259
87 -68 69 -95 141 -85 229 18 155 147 256 326 256 94 0 165 -23 221 -72 l41
-37 162 18 c88 10 163 20 165 22 10 10 -55 98 -107 146 -109 100 -264 156
-452 164 -58 2 -116 2 -130 -1z"/>
<path d="M18420 2450 c-262 -33 -439 -151 -506 -335 -32 -89 -40 -192 -20
-285 54 -255 238 -401 542 -430 260 -24 489 41 642 184 35 33 77 79 92 102
l29 42 -47 5 c-26 3 -100 11 -165 18 l-117 11 -46 -42 c-78 -71 -119 -85 -264
-85 -114 0 -130 2 -181 26 -71 33 -123 88 -148 153 l-19 51 490 3 491 2 -7 76
c-28 310 -243 490 -606 508 -52 3 -124 1 -160 -4z m253 -240 c71 -22 119 -56
142 -101 32 -62 45 -59 -290 -59 l-305 0 20 39 c60 119 259 175 433 121z"/>
<path d="M10934 2435 c-34 -7 -85 -25 -114 -40 -50 -26 -138 -105 -142 -128
-1 -7 -4 24 -7 68 l-6 80 -163 3 -162 2 2 -492 3 -493 160 0 160 0 5 285 c5
306 7 316 62 367 50 47 116 67 236 71 l112 4 0 144 0 144 -42 -1 c-24 0 -70
-7 -104 -14z"/>
<path d="M16060 1925 l0 -496 158 3 157 3 0 490 0 490 -157 3 -158 3 0 -496z"/>
<path d="M12632 1978 l3 -123 273 -3 272 -2 0 125 0 125 -275 0 -276 0 3 -122z"/>
</g>
</svg>
