<?xml version="1.0" standalone="no"?>
<!DOCTYPE svg PUBLIC "-//W3C//DTD SVG 20010904//EN"
 "http://www.w3.org/TR/2001/REC-SVG-20010904/DTD/svg10.dtd">
<svg version="1.0" xmlns="http://www.w3.org/2000/svg"
 width="360.000000pt" height="85.000000pt" viewBox="0 0 360.000000 85.000000"
 preserveAspectRatio="xMidYMid meet">

<g transform="translate(0.000000,85.000000) scale(0.100000,-0.100000)"
fill="#000000" stroke="none">
<path d="M2293 829 c-64 -25 -138 -102 -154 -161 -26 -99 23 -206 121 -262 50
-28 63 -31 145 -31 69 0 99 5 129 19 77 38 128 109 142 194 l7 42 -142 0
c-119 0 -141 -2 -141 -15 0 -12 20 -15 120 -15 134 0 133 0 105 -68 -37 -87
-106 -127 -220 -127 -93 0 -144 22 -193 81 -93 112 -40 267 109 319 73 26 180
13 243 -30 29 -20 37 -21 46 -10 9 11 5 18 -22 35 -84 52 -205 64 -295 29z"/>
<path d="M0 610 l0 -230 35 0 35 0 0 230 0 230 -35 0 -35 0 0 -230z"/>
<path d="M158 829 c-16 -9 -18 -31 -18 -229 l0 -220 35 0 35 0 0 175 c0 96 3
175 8 175 4 0 39 -53 77 -117 137 -230 140 -233 183 -233 21 0 43 5 50 12 9 9
12 74 12 231 l0 218 -37 -3 -38 -3 -3 -175 -3 -175 -94 160 c-52 88 -104 168
-116 178 -24 19 -65 22 -91 6z"/>
<path d="M560 837 c0 -18 173 -427 188 -444 26 -29 63 -29 89 0 17 19 173 414
173 438 0 6 -16 9 -36 7 l-37 -3 -71 -182 c-39 -101 -73 -183 -76 -183 -3 0
-36 78 -74 173 -38 94 -74 178 -79 185 -8 10 -77 19 -77 9z"/>
<path d="M1413 803 c49 -84 17 -206 -71 -268 -39 -27 -52 -30 -117 -30 -65 0
-78 3 -117 30 -24 17 -56 53 -71 80 l-28 50 6 -37 c15 -92 81 -180 170 -226
40 -21 64 -26 125 -26 41 0 92 5 113 12 58 21 129 83 162 143 27 48 30 63 30
139 0 63 -5 97 -19 128 l-19 42 -93 0 -93 0 22 -37z"/>
<path d="M1714 827 c-3 -8 -4 -97 -2 -197 l3 -182 37 -34 c37 -33 39 -34 128
-34 73 0 90 3 90 15 0 12 -16 15 -84 15 -133 0 -130 -5 -136 231 -4 141 -8
193 -17 197 -7 2 -16 -3 -19 -11z"/>
<path d="M2027 833 c-4 -3 -7 -107 -7 -230 0 -192 2 -223 15 -223 13 0 15 32
15 230 0 210 -3 243 -23 223z"/>
<path d="M2760 611 c0 -199 2 -231 15 -231 12 0 15 19 15 110 l0 110 155 0
155 0 0 -110 c0 -92 3 -110 15 -110 13 0 15 29 13 227 -2 170 -6 227 -15 231
-10 3 -13 -22 -13 -102 l0 -106 -155 0 -154 0 -3 102 c-2 70 -7 103 -15 106
-10 3 -13 -47 -13 -227z"/>
<path d="M3190 825 c0 -12 15 -15 75 -15 l75 0 0 -215 c0 -183 2 -215 15 -215
12 0 15 33 17 213 l3 212 78 3 c59 2 77 6 77 17 0 13 -28 15 -170 15 -144 0
-170 -2 -170 -15z"/>
</g>
</svg>
