<?xml version="1.0" standalone="no"?>
<!DOCTYPE svg PUBLIC "-//W3C//DTD SVG 20010904//EN"
 "http://www.w3.org/TR/2001/REC-SVG-20010904/DTD/svg10.dtd">
<svg version="1.0" xmlns="http://www.w3.org/2000/svg"
 width="243.000000pt" height="240.000000pt" viewBox="0 0 243.000000 240.000000"
 preserveAspectRatio="xMidYMid meet">

<g transform="translate(0.000000,240.000000) scale(0.100000,-0.100000)"
fill="#000000" stroke="none">
<path d="M1065 2389 c-258 -33 -500 -154 -691 -343 -408 -406 -468 -1038 -144
-1522 68 -101 213 -246 314 -314 413 -277 939 -277 1352 0 101 68 246 213 314
314 277 413 277 939 0 1352 -68 101 -213 246 -314 314 -247 165 -541 235 -831
199z m282 -70 c526 -58 936 -475 994 -1009 42 -382 -132 -778 -444 -1011 -447
-333 -1067 -293 -1462 96 -227 223 -339 488 -339 805 0 311 110 578 328 796
246 246 577 362 923 323z"/>
<path d="M1180 1671 c-151 -49 -230 -204 -231 -452 0 -162 38 -285 117 -369
62 -67 110 -84 216 -78 122 7 188 47 237 144 21 44 46 168 36 185 -4 5 -46 9
-94 9 l-88 0 -12 -59 c-16 -80 -41 -111 -91 -111 -30 0 -43 6 -64 30 -35 43
-47 88 -53 215 -8 169 20 280 78 311 56 29 111 -10 124 -86 l7 -40 94 0 c106
0 101 -4 83 82 -21 98 -66 161 -143 200 -43 22 -173 34 -216 19z"/>
<path d="M310 1221 l0 -441 105 0 105 0 2 168 3 167 44 3 c55 4 95 -12 110
-44 6 -14 11 -74 11 -134 0 -60 4 -120 10 -134 9 -26 11 -26 119 -26 l110 0
-15 35 c-9 22 -14 70 -14 134 0 134 -14 193 -54 236 l-33 34 30 28 c47 45 57
74 57 166 0 110 -29 174 -98 215 -47 27 -48 27 -269 30 l-223 3 0 -440z m372
252 c14 -14 22 -39 26 -72 4 -46 2 -53 -26 -81 -28 -27 -36 -30 -96 -30 l-66
0 0 98 c0 54 3 102 8 106 4 4 35 6 70 4 47 -3 68 -9 84 -25z"/>
<path d="M1610 1220 l0 -440 105 0 105 0 0 175 0 175 130 0 130 0 0 85 0 85
-130 0 -130 0 0 100 0 100 150 0 150 0 0 80 0 80 -255 0 -255 0 0 -440z"/>
</g>
</svg>
