<?xml version="1.0" standalone="no"?>
<!DOCTYPE svg PUBLIC "-//W3C//DTD SVG 20010904//EN"
 "http://www.w3.org/TR/2001/REC-SVG-20010904/DTD/svg10.dtd">
<svg version="1.0" xmlns="http://www.w3.org/2000/svg"
 width="279.000000pt" height="278.000000pt" viewBox="0 0 279.000000 278.000000"
 preserveAspectRatio="xMidYMid meet">

<g transform="translate(0.000000,278.000000) scale(0.100000,-0.100000)"
fill="#000000" stroke="none">
<path d="M54 2736 l-34 -34 0 -1301 c0 -1415 -3 -1343 55 -1369 20 -9 339 -12
1325 -12 l1300 0 32 29 33 29 3 1301 c2 1151 0 1305 -13 1331 -33 64 54 60
-1371 60 l-1296 0 -34 -34z m2630 -52 c14 -14 16 -145 16 -1293 0 -980 -3
-1280 -12 -1289 -17 -17 -2569 -17 -2586 0 -17 17 -17 2569 0 2586 9 9 309 12
1289 12 1148 0 1279 -2 1293 -16z"/>
<path d="M285 2490 c-3 -5 31 -91 77 -191 l82 -182 112 -73 113 -73 31 -103
c163 -531 304 -977 314 -993 29 -44 198 -225 211 -225 37 0 35 32 -35 566 -37
291 -68 530 -67 530 1 1 53 -27 114 -63 62 -35 117 -62 123 -58 6 4 10 102 10
273 0 299 6 270 -83 374 -26 31 -60 61 -75 67 -20 8 -891 161 -916 161 -3 0
-7 -4 -11 -10z"/>
<path d="M2030 2423 c-239 -41 -446 -80 -459 -86 -14 -7 -53 -45 -88 -84 l-63
-73 0 -274 c0 -168 4 -277 10 -281 5 -3 57 22 116 55 58 34 108 59 111 56 3
-3 -25 -242 -62 -530 -70 -543 -71 -556 -30 -556 18 0 203 212 219 252 8 18
85 263 171 543 87 281 162 516 169 524 6 7 54 42 108 77 53 34 103 73 112 86
25 38 156 334 156 352 0 9 -8 16 -17 15 -10 -1 -214 -35 -453 -76z"/>
<path d="M190 415 l0 -35 50 0 49 0 3 -77 3 -78 38 -3 37 -3 0 80 0 81 55 0
55 0 0 35 0 35 -145 0 -145 0 0 -35z"/>
<path d="M500 416 l0 -35 53 -3 52 -3 3 -77 3 -78 34 0 34 0 3 78 3 77 53 3
52 3 0 35 0 34 -145 0 -145 0 0 -34z"/>
<path d="M1237 343 c-26 -59 -47 -111 -47 -115 0 -15 78 -8 84 7 8 22 122 21
134 -1 6 -11 20 -14 50 -12 l42 3 -48 110 -47 110 -61 3 -60 3 -47 -108z m130
-1 l13 -32 -35 0 c-38 0 -44 14 -24 51 14 27 30 20 46 -19z"/>
<path d="M1510 361 c0 -130 7 -136 144 -136 137 0 140 2 144 130 l4 95 -41 0
-40 0 -3 -77 -3 -78 -60 0 -60 0 -3 78 -3 77 -39 0 -40 0 0 -89z"/>
<path d="M1840 336 l0 -116 103 1 c117 0 166 13 184 49 27 53 7 147 -34 165
-10 4 -71 10 -135 13 l-118 4 0 -116z m204 28 c19 -18 20 -28 6 -55 -9 -15
-22 -19 -70 -19 l-60 0 0 45 0 45 54 0 c36 0 60 -5 70 -16z"/>
<path d="M2180 335 l0 -116 38 3 37 3 0 110 0 110 -37 3 -38 3 0 -116z"/>
<path d="M2344 436 c-38 -17 -44 -31 -44 -106 0 -42 5 -64 19 -81 18 -22 26
-24 124 -24 120 0 141 10 152 75 11 62 -3 109 -39 131 -38 23 -164 26 -212 5z
m167 -80 c8 -17 8 -29 -1 -45 -10 -19 -18 -22 -68 -19 -54 3 -57 4 -60 31 -6
49 2 57 63 57 49 0 57 -3 66 -24z"/>
<path d="M887 423 c-4 -3 -7 -19 -7 -34 0 -24 -4 -28 -32 -31 -29 -3 -33 -6
-33 -33 0 -26 4 -30 32 -33 28 -3 32 -7 35 -35 3 -28 7 -32 36 -35 31 -3 32
-2 32 32 0 34 2 36 35 36 33 0 35 2 35 35 0 33 -2 35 -35 35 -33 0 -35 2 -35
35 0 32 -3 35 -28 35 -16 0 -32 -3 -35 -7z"/>
</g>
</svg>
