<?xml version="1.0" encoding="UTF-8"?>
<svg version="1.1" xmlns="http://www.w3.org/2000/svg" width="1091" height="228">
<path d="M0 0 C0.68718894 -0.00226556 1.37437788 -0.00453111 2.08239073 -0.00686532 C4.39010343 -0.01320667 6.69775744 -0.01237588 9.00547791 -0.0115509 C10.65782752 -0.01454224 12.31017643 -0.0179447 13.96252441 -0.02172852 C18.45407707 -0.03057348 22.94561069 -0.03290679 27.43717122 -0.0335443 C31.18252497 -0.03449279 34.92787426 -0.03817024 38.6732263 -0.0417164 C47.50500777 -0.04986218 56.33677905 -0.05230045 65.16856384 -0.05158997 C74.29185728 -0.05098853 83.4150917 -0.06155312 92.53837019 -0.07733363 C100.36260383 -0.09038699 108.18681812 -0.09577482 116.01106256 -0.09513456 C120.68809135 -0.094879 125.36506767 -0.09776208 130.04208565 -0.10831261 C134.43741937 -0.11795706 138.83265005 -0.11809806 143.22798729 -0.11079597 C144.84454625 -0.10974569 146.46111151 -0.1121391 148.07765961 -0.11815643 C150.27740082 -0.12581685 152.47678084 -0.12127166 154.67651367 -0.11352539 C155.9096634 -0.11407016 157.14281313 -0.11461493 158.41333103 -0.1151762 C161.27476501 0.13371277 161.27476501 0.13371277 163.27476501 2.13371277 C162.82957508 9.70194158 161.24615083 17.13245995 159.83726501 24.57121277 C159.62005798 25.73459167 159.40285095 26.89797058 159.17906189 28.09660339 C155.82235722 46.00910848 155.82235722 46.00910848 154.27476501 52.13371277 C152.36130028 52.13038185 152.36130028 52.13038185 150.40917969 52.12698364 C138.41583353 52.1067545 126.42249082 52.09174173 114.42913151 52.0819006 C108.26251581 52.07667119 102.09591383 52.0695725 95.92930603 52.05827332 C89.98360496 52.04744648 84.03791712 52.04143637 78.09220695 52.03883553 C75.81829558 52.03698091 73.54438497 52.0333596 71.2704792 52.02798271 C68.09749381 52.02077499 64.92456385 52.01972171 61.75157166 52.02018738 C60.8013916 52.0165921 59.85121155 52.01299683 58.87223816 52.0092926 C54.74839267 51.59145135 54.74839267 51.59145135 51.27476501 53.13371277 C51.23383564 55.4666871 51.23234778 57.80076501 51.27476501 60.13371277 C52.54929787 60.13038185 52.54929787 60.13038185 53.84957886 60.12698364 C61.84013227 60.10698263 69.83067732 60.09173961 77.82124996 60.0819006 C81.92970786 60.0766723 86.03814515 60.06957564 90.14659119 60.05827332 C94.1082333 60.04744251 98.06985554 60.04143553 102.03151131 60.03883553 C103.54624812 60.03698162 105.0609838 60.03336167 106.5757122 60.02798271 C108.69018314 60.0207697 110.80457095 60.01972193 112.91905212 60.02018738 C114.12484421 60.01796677 115.33063629 60.01574615 116.57296753 60.01345825 C119.27476501 60.13371277 119.27476501 60.13371277 120.27476501 61.13371277 C119.86058299 70.24571732 115.50946417 79.00480911 111.30992126 86.96183777 C109.42516407 90.91627174 108.00859356 95.06370853 106.52085876 99.18058777 C105.36615274 101.91713246 104.27461988 103.94819499 102.27476501 106.13371277 C101.61476501 106.13371277 100.95476501 106.13371277 100.27476501 106.13371277 C100.27476501 106.79371277 100.27476501 107.45371277 100.27476501 108.13371277 C83.59929885 108.8228725 66.96487655 109.2869893 50.27476501 109.13371277 C50.76976501 113.58871277 50.76976501 113.58871277 51.27476501 118.13371277 C81.30476501 118.46371277 111.33476501 118.79371277 142.27476501 119.13371277 C143.3997931 124.7588532 143.3997931 124.7588532 142.66978455 128.40153503 C142.51277069 129.20909744 142.35575684 130.01665985 142.19398499 130.84869385 C141.92846329 132.13639931 141.92846329 132.13639931 141.65757751 133.45011902 C141.48096588 134.34359543 141.30435425 135.23707184 141.12239075 136.15762329 C140.55709298 139.00568211 139.97850559 141.85085856 139.39976501 144.69621277 C139.01740241 146.61466291 138.63588261 148.53328123 138.25523376 150.45207214 C137.55468618 153.96750298 136.85175011 157.48240043 136.13853455 160.99528503 C135.99561981 161.69968216 135.85270508 162.40407928 135.70545959 163.12982178 C135.27259013 165.14383183 134.78586493 167.13825488 134.27476501 169.13371277 C99.76271026 169.98650569 65.2911401 170.22889649 30.77083969 169.79308701 C28.01818536 169.75863041 25.26551331 169.72607908 22.51283264 169.69380188 C18.15877928 169.64187384 13.80485214 169.58378267 9.45095253 169.52027702 C7.83371254 169.49709497 6.21645152 169.47533339 4.59917259 169.45504951 C2.38383547 169.42649233 0.16869014 169.39165939 -2.04652405 169.35490417 C-3.29403442 169.33634369 -4.5415448 169.3177832 -5.82685852 169.29866028 C-8.72523499 169.13371277 -8.72523499 169.13371277 -10.72523499 168.13371277 C-11.84736478 164.76732339 -11.85390989 162.23005763 -11.85894775 158.68095398 C-11.86234609 157.69410622 -11.86234609 157.69410622 -11.86581308 156.68732214 C-11.87215275 154.47867939 -11.87132374 152.270098 -11.87049866 150.06144714 C-11.87349012 148.47968466 -11.87689262 146.8979229 -11.88067627 145.31616211 C-11.88952056 141.01668477 -11.89185453 136.71722733 -11.89249206 132.41774178 C-11.89344074 128.83154321 -11.89711847 125.24534929 -11.90066415 121.65915251 C-11.90880991 113.20128869 -11.91124823 104.74343552 -11.91053772 96.28556824 C-11.90993649 87.55196713 -11.92049695 78.8184277 -11.93628138 70.08484221 C-11.94934119 62.59264951 -11.95472229 55.10047702 -11.95408231 47.60827303 C-11.95382692 43.13074355 -11.95670104 38.6532689 -11.96726036 34.17575073 C-11.97691546 29.96672856 -11.97703841 25.75781395 -11.96974373 21.54878807 C-11.96869474 20.00198905 -11.97107932 18.45518341 -11.97710419 16.90839577 C-11.98478277 14.80095976 -11.98020717 12.69389905 -11.97247314 10.58647156 C-11.97301791 9.40586403 -11.97356268 8.2252565 -11.97412395 7.00887299 C-11.72523499 4.13371277 -11.72523499 4.13371277 -9.72523499 1.13371277 C-6.2834451 -0.01355053 -3.63171229 0.00493397 0 0 Z " fill="#000000" transform="translate(381.72523498535156,11.866287231445313)"/>
<path d="M0 0 C0.97965225 -0.00845947 1.9593045 -0.01691895 2.96864319 -0.02563477 C4.57926636 -0.01652573 4.57926636 -0.01652573 6.22242737 -0.00723267 C7.35451126 -0.01248962 8.48659515 -0.01774658 9.65298462 -0.02316284 C13.41007644 -0.03640602 17.16674694 -0.02760388 20.92384338 -0.01748657 C23.53639813 -0.01950732 26.14895232 -0.02241877 28.76150513 -0.02618408 C34.24852566 -0.03164654 39.73542521 -0.02444456 45.22242737 -0.01016235 C51.53949289 0.00609206 57.85626681 0.00093061 64.173325 -0.01564157 C70.26927592 -0.03098657 76.36509919 -0.02924428 82.46106148 -0.02049637 C85.04406335 -0.0185031 87.62707272 -0.02092276 90.21006584 -0.02793503 C93.83807937 -0.0356164 97.4655478 -0.0238481 101.09352112 -0.00723267 C102.14905182 -0.01330536 103.20458252 -0.01937805 104.292099 -0.02563477 C114.45678113 0.05992267 125.30588617 1.50678258 133.24024963 8.38095093 C138.48841578 13.81957472 141.28586975 19.15604981 143.24024963 26.38095093 C143.74117126 27.70183716 143.74117126 27.70183716 144.25221252 29.04940796 C145.34282442 32.72682084 145.58983821 36.12352111 145.65431213 39.92391968 C145.67385956 40.66500473 145.69340698 41.40608978 145.71354675 42.16963196 C145.77476602 44.63579182 145.82099708 47.10193161 145.86524963 49.56845093 C145.88293396 50.42299866 145.90061829 51.27754639 145.9188385 52.1579895 C146.05803782 58.89861555 146.15512138 65.63944828 146.24024963 72.38095093 C146.25463074 73.46414612 146.26901184 74.54734131 146.28382874 75.6633606 C146.37172328 82.4895482 146.43479807 89.31542599 146.47041321 96.14208984 C146.48351628 98.36410853 146.50137032 100.58610487 146.52424622 102.80804443 C146.63836361 114.73353687 146.58333766 125.84200096 143.24024963 137.38095093 C142.92966614 138.49373413 142.61908264 139.60651733 142.29908752 140.75302124 C140.37462279 147.38538778 137.77276791 152.21668785 133.24024963 157.38095093 C132.53384338 158.24075562 131.82743713 159.1005603 131.09962463 159.98641968 C126.37477925 165.55498745 122.42888969 169.64242798 114.97096252 170.70394897 C112.14146863 170.91521129 109.32705183 171.00696882 106.49024963 171.06845093 C104.7825238 171.11751587 104.7825238 171.11751587 103.04029846 171.16757202 C66.4477452 172.04988274 29.82253799 171.36478187 -6.75975037 170.38095093 C-8.18854253 167.5233666 -7.8923427 165.09225865 -7.90019226 161.89659119 C-7.90464894 160.88652375 -7.90464894 160.88652375 -7.90919566 159.85605091 C-7.9179 157.58902924 -7.91939235 155.32206027 -7.92088318 153.05502319 C-7.92551006 151.4339995 -7.93053455 149.81297689 -7.93592834 148.19195557 C-7.94906532 143.78085664 -7.95549962 139.36977294 -7.959939 134.9586575 C-7.96286714 132.20509653 -7.96697141 129.45153975 -7.97144318 126.69798088 C-7.98512042 118.089332 -7.99478643 109.48069265 -7.99864507 100.87203366 C-8.00312904 90.92198471 -8.02069166 80.97207292 -8.04964566 71.0220657 C-8.07123052 63.33881202 -8.0813476 55.65559703 -8.08268619 47.97231334 C-8.08373635 43.37960128 -8.08968903 38.78701809 -8.1075058 34.19433784 C-8.12393177 29.87613152 -8.12616882 25.55815173 -8.11736679 21.23992538 C-8.11659351 19.65280871 -8.1209772 18.06568013 -8.13082504 16.47859383 C-8.14345843 14.3162208 -8.13771575 12.15466065 -8.12724304 9.99229431 C-8.12944288 8.17518873 -8.12944288 8.17518873 -8.13168716 6.32137394 C-7.75975037 3.38095093 -7.75975037 3.38095093 -6.53426647 1.4915514 C-4.22350442 0.04533549 -2.72240169 0.0036149 0 0 Z M51.24024963 48.38095093 C50.42421869 77.02773056 50.42421869 77.02773056 50.06300354 105.68295288 C50.05618843 107.06074111 50.04595552 108.43851683 50.03224182 109.81625366 C50.01457703 111.72056471 50.01178445 113.62499651 50.00978088 115.52938843 C50.005672 116.59334839 50.00156311 117.65730835 49.99732971 118.75350952 C50.05162918 121.61340965 50.05162918 121.61340965 52.24024963 124.38095093 C56.21169454 124.94068477 60.2408555 124.55464399 64.24024963 124.38095093 C66.06942932 124.35194702 66.06942932 124.35194702 67.93556213 124.32235718 C75.50708431 124.2334399 75.50708431 124.2334399 82.11524963 121.00595093 C84.55484875 118.55521416 84.55484875 118.55521416 84.24024963 115.38095093 C84.90024963 115.38095093 85.56024963 115.38095093 86.24024963 115.38095093 C86.03399963 114.76220093 85.82774963 114.14345093 85.61524963 113.50595093 C85.49149963 112.80470093 85.36774963 112.10345093 85.24024963 111.38095093 C85.90024963 110.72095093 86.56024963 110.06095093 87.24024963 109.38095093 C87.57388243 107.13487135 87.57388243 107.13487135 87.56251526 104.50741577 C87.58173035 103.49230927 87.60094543 102.47720276 87.6207428 101.43133545 C87.63349243 99.77830917 87.63349243 99.77830917 87.64649963 98.09188843 C87.66359985 96.39330185 87.66359985 96.39330185 87.68104553 94.66040039 C87.69996935 92.25788115 87.71302294 89.85530971 87.72071838 87.45272827 C87.74006368 83.79114767 87.80205147 80.13184451 87.86524963 76.47079468 C87.87831651 74.13617259 87.88881478 71.80153443 87.89649963 69.46688843 C87.92119324 68.3770163 87.94588684 67.28714417 87.97132874 66.16424561 C87.9343249 59.78946552 87.12819307 55.73776954 82.86386108 50.86921692 C79.16016696 47.4742655 75.66102131 47.12884155 70.79103088 47.15048218 C69.77847229 47.15241577 68.7659137 47.15434937 67.72267151 47.15634155 C66.67659729 47.16858765 65.63052307 47.18083374 64.55274963 47.19345093 C63.49507385 47.19409546 62.43739807 47.19473999 61.34767151 47.19540405 C56.12707266 46.99543448 56.12707266 46.99543448 51.24024963 48.38095093 Z " fill="#010101" transform="translate(723.7597503662109,13.619049072265625)"/>
<path d="M0 0 C1.13127319 -0.00953201 2.26254639 -0.01906403 3.42810059 -0.02888489 C5.26096619 -0.02751778 5.26096619 -0.02751778 7.13085938 -0.02612305 C8.38467407 -0.03040817 9.63848877 -0.0346933 10.93029785 -0.03910828 C13.58339422 -0.04485587 16.23610205 -0.04628189 18.88916016 -0.04101562 C22.28899153 -0.03521647 25.68827892 -0.05216373 29.08802032 -0.0753603 C32.33146282 -0.09363117 35.57487466 -0.08991263 38.81835938 -0.08862305 C40.04026978 -0.09783279 41.26218018 -0.10704254 42.52111816 -0.11653137 C43.65239136 -0.11030258 44.78366455 -0.10407379 45.94921875 -0.09765625 C46.94610718 -0.09828568 47.94299561 -0.0989151 48.97009277 -0.0995636 C51.47460938 0.2746582 51.47460938 0.2746582 53.29292297 1.39224243 C55.04746881 4.18721812 54.8761826 6.48236438 54.90698242 9.765625 C54.9222699 10.74651596 54.9222699 10.74651596 54.93786621 11.7472229 C54.96803274 13.90619432 54.97726718 16.06472234 54.98632812 18.22387695 C55.00317221 19.72176085 55.02132208 21.21963059 55.04072571 22.71748352 C55.08826175 26.65804622 55.11804752 30.59855153 55.14416504 34.53930664 C55.17395257 38.56123187 55.22048904 42.58295924 55.265625 46.60473633 C55.35169919 54.49462965 55.41747779 62.38450216 55.47460938 70.2746582 C63.06460938 70.2746582 70.65460938 70.2746582 78.47460938 70.2746582 C78.48919189 68.26073975 78.50377441 66.24682129 78.51879883 64.171875 C78.56910854 57.52207777 78.63569693 50.87251561 78.71032429 44.22294903 C78.75507525 40.19080791 78.79432066 36.15876893 78.82104492 32.12646484 C78.8470312 28.23592657 78.88739961 24.34578038 78.93779564 20.45548439 C78.95449619 18.97036422 78.9659906 17.48517619 78.97222328 15.9999752 C78.98183028 13.92143916 79.00984559 11.84391335 79.04223633 9.765625 C79.05333939 8.58203903 79.06444244 7.39845306 79.07588196 6.17900085 C79.47460938 3.2746582 79.47460938 3.2746582 80.65530396 1.39224243 C83.18999633 -0.16479807 85.0480758 -0.09952443 88.01586914 -0.09765625 C89.15037003 -0.10388504 90.28487091 -0.11011383 91.45375061 -0.11653137 C92.67879807 -0.10732162 93.90384552 -0.09811188 95.16601562 -0.08862305 C96.422202 -0.08912155 97.67838837 -0.08962006 98.97264099 -0.09013367 C101.63010211 -0.08779131 104.28676867 -0.07962661 106.9440918 -0.06152344 C110.35290778 -0.03881293 113.76128086 -0.03829681 117.17015171 -0.04504108 C120.41880652 -0.04918183 123.66738235 -0.03721329 126.91601562 -0.02612305 C128.14308731 -0.02703445 129.370159 -0.02794586 130.63441467 -0.02888489 C131.7657634 -0.01935287 132.89711212 -0.00982086 134.06274414 0 C135.06185318 0.00460739 136.06096222 0.00921478 137.09034729 0.01396179 C139.47460938 0.2746582 139.47460938 0.2746582 141.47460938 2.2746582 C141.72349834 5.11044407 141.72349834 5.11044407 141.72184753 8.81044006 C141.72426195 9.48931304 141.72667637 10.16818601 141.72916394 10.8676309 C141.73482111 13.15322408 141.72612285 15.43854026 141.7175293 17.72412109 C141.71860167 19.35824154 141.72053969 20.99236161 141.72328186 22.6264801 C141.72814011 27.07260537 141.72046263 31.51863068 141.71032882 35.96474385 C141.70156556 40.60877325 141.70330542 45.25279935 141.70368958 49.89683533 C141.70275223 57.69572632 141.69405834 65.49457846 141.68041992 73.29345703 C141.66468816 82.32300865 141.65942197 91.35251771 141.66015548 100.38208205 C141.66076485 109.05320902 141.65566805 117.72432207 141.64736366 126.39544487 C141.64382403 130.09280951 141.64199945 133.79016922 141.64146996 137.48753548 C141.64046878 141.83687217 141.63439071 146.18617284 141.62430382 150.53549767 C141.62137173 152.13634648 141.62015487 153.73719944 141.62073135 155.33805084 C141.6212186 157.5140261 141.61560056 159.68989893 141.60832214 161.86585999 C141.6066463 163.08648164 141.60497046 164.30710329 141.60324383 165.56471348 C141.47460938 168.2746582 141.47460938 168.2746582 140.47460938 169.2746582 C130.88050113 170.97855903 120.79208326 170.42676416 111.08496094 170.4050293 C108.21739479 170.39964466 105.34998342 170.4050133 102.48242188 170.41137695 C100.6412757 170.41071653 98.80012962 170.4094361 96.95898438 170.4074707 C95.68689117 170.41050705 95.68689117 170.41050705 94.38909912 170.41360474 C89.65721568 170.39507225 85.11734813 170.2387784 80.47460938 169.2746582 C79.27638066 166.87820076 79.31833623 165.31803793 79.26928711 162.64135742 C79.23936928 161.20008987 79.23936928 161.20008987 79.20884705 159.72970581 C79.19213455 158.69008698 79.17542206 157.65046814 79.15820312 156.5793457 C79.13742203 155.51676544 79.11664093 154.45418518 79.0952301 153.35940552 C79.02970677 149.95622383 78.97083664 146.55296331 78.91210938 143.1496582 C78.86892681 140.84626455 78.82531261 138.54287894 78.78125 136.23950195 C78.67320818 130.58463374 78.5741552 124.92970798 78.47460938 119.2746582 C70.88460937 119.2746582 63.29460937 119.2746582 55.47460938 119.2746582 C55.43722656 122.78864258 55.39984375 126.30262695 55.36132812 129.9230957 C55.31515595 133.31541273 55.26390658 136.70761752 55.2121582 140.09985352 C55.17884378 142.46274023 55.15083241 144.82570778 55.12817383 147.1887207 C55.09474768 150.57969713 55.0424379 153.96992836 54.98632812 157.3605957 C54.97674324 158.95283463 54.97674324 158.95283463 54.96696472 160.57723999 C54.94717056 161.55810577 54.9273764 162.53897156 54.90698242 163.54956055 C54.89587936 164.41559906 54.88477631 165.28163757 54.87333679 166.17391968 C54.74175674 166.86716339 54.6101767 167.5604071 54.47460938 168.2746582 C51.1829125 170.46912279 50.20131169 170.52679281 46.37988281 170.53344727 C45.34160339 170.53975159 44.30332397 170.54605591 43.23358154 170.55255127 C42.11171448 170.54850281 40.98984741 170.54445435 39.83398438 170.5402832 C38.67844055 170.54219666 37.52289673 170.54411011 36.33233643 170.54608154 C33.88447858 170.54744373 31.43661353 170.54374495 28.98876953 170.53540039 C25.25341386 170.52474041 21.51854341 170.53527473 17.78320312 170.5480957 C15.40429582 170.54677335 13.02538881 170.5442094 10.64648438 170.5402832 C9.53271423 170.54433167 8.41894409 170.54838013 7.27142334 170.55255127 C6.22053528 170.54624695 5.16964722 170.53994263 4.08691406 170.53344727 C3.16996765 170.53185608 2.25302124 170.53026489 1.30828857 170.52862549 C-2.13331425 170.22017331 -5.21858715 169.25401948 -8.52539062 168.2746582 C-8.59539081 146.66551117 -8.64833462 125.05638277 -8.68082714 103.44714546 C-8.69631323 93.41418804 -8.71743591 83.38130095 -8.75170898 73.34838867 C-8.78155815 64.60636057 -8.80095295 55.86438339 -8.80765611 47.12230575 C-8.811576 42.49102024 -8.82082418 37.85988044 -8.8425808 33.22864151 C-8.86287526 28.87354421 -8.86923879 24.51865328 -8.86471367 20.16351318 C-8.86554204 18.56145991 -8.87154954 16.95940006 -8.88300705 15.35738754 C-8.89784159 13.1770575 -8.89437814 10.99751589 -8.88615417 8.81716919 C-8.88891955 7.59487169 -8.89168493 6.3725742 -8.89453411 5.11323738 C-8.77271676 4.17650625 -8.65089941 3.23977512 -8.52539062 2.2746582 C-5.14204736 0.01909603 -3.96566132 0.01832838 0 0 Z " fill="#000000" transform="translate(217.525390625,11.725341796875)"/>
<path d="M0 0 C1.08807953 -0.00630432 2.17615906 -0.01260864 3.29721069 -0.019104 C5.0674913 -0.01303131 5.0674913 -0.01303131 6.87353516 -0.00683594 C8.08200104 -0.00874939 9.29046692 -0.01066284 10.53555298 -0.01263428 C13.09613248 -0.01399749 15.65671887 -0.01029164 18.21728516 -0.00195312 C22.13931833 0.00872568 26.06089149 -0.0018346 29.98291016 -0.01464844 C32.46728617 -0.0133265 34.9516619 -0.01076341 37.43603516 -0.00683594 C38.61217377 -0.0108844 39.78831238 -0.01493286 41.00009155 -0.019104 C42.64166733 -0.00964752 42.64166733 -0.00964752 44.31640625 0 C45.27856049 0.00159119 46.24071472 0.00318237 47.23202515 0.00482178 C49.91132545 0.27108486 51.53389351 0.8063673 53.78759766 2.25878906 C55.26500416 5.21360207 55.02693649 8.24832407 55.10400391 11.49316406 C55.13524353 12.60027489 55.13524353 12.60027489 55.16711426 13.72975159 C55.23348477 16.15598901 55.29218715 18.58233597 55.35009766 21.00878906 C55.381866 22.24282974 55.381866 22.24282974 55.41427612 23.50180054 C55.82305201 39.42355378 55.89401121 55.33222709 55.78759766 71.25878906 C63.37759766 71.25878906 70.96759766 71.25878906 78.78759766 71.25878906 C78.80741699 69.17904785 78.82723633 67.09930664 78.84765625 64.95654297 C78.91447772 58.09523991 78.99211817 51.23409027 79.07512474 44.37296486 C79.12513165 40.21189349 79.17146106 36.05084805 79.20947266 31.88964844 C79.24627028 27.8760004 79.29261468 23.86256706 79.34566116 19.84910202 C79.36423461 18.3156955 79.37933161 16.78224291 79.39094162 15.24876785 C79.40775407 13.1055616 79.43677554 10.96285025 79.46875 8.81982422 C79.48207367 7.59848785 79.49539734 6.37715149 79.50912476 5.11880493 C79.78759766 2.25878906 79.78759766 2.25878906 81.78759766 0.25878906 C84.21655273 -0.00190735 84.21655273 -0.00190735 87.30712891 -0.01586914 C88.46172607 -0.02540115 89.61632324 -0.03493317 90.8059082 -0.04475403 C92.05799072 -0.04384262 93.31007324 -0.04293121 94.60009766 -0.04199219 C96.5197937 -0.04841988 96.5197937 -0.04841988 98.47827148 -0.05497742 C101.18851866 -0.06244335 103.89863557 -0.06214547 106.60888672 -0.05688477 C110.08618989 -0.05108553 113.56296121 -0.06802943 117.04017639 -0.09122944 C120.35183972 -0.10948075 123.66338421 -0.10578216 126.97509766 -0.10449219 C128.22718018 -0.11370193 129.4792627 -0.12291168 130.76928711 -0.13240051 C132.50118286 -0.12305733 132.50118286 -0.12305733 134.26806641 -0.11352539 C135.28795654 -0.11415482 136.30784668 -0.11478424 137.35864258 -0.11543274 C138.16019775 0.00806046 138.96175293 0.13155365 139.78759766 0.25878906 C142.19885774 3.87567918 142.04094718 5.5210601 142.04829407 9.82543945 C142.05211961 10.49558862 142.05594516 11.16573778 142.05988663 11.8561945 C142.07022242 14.10635742 142.06622349 16.35626545 142.06225586 18.60644531 C142.06660198 20.21776567 142.07178479 21.82908397 142.07774353 23.44039917 C142.09115449 27.82047177 142.09170995 32.2004582 142.08918023 36.58054733 C142.08811209 40.23385472 142.09298976 43.88714455 142.09778565 47.54044819 C142.10888776 56.15653605 142.10931407 64.77258032 142.10327148 73.38867188 C142.09722784 82.28590359 142.10955098 91.18297732 142.13084155 100.08018208 C142.14843572 107.71250831 142.15446244 115.34478416 142.15120381 122.97712994 C142.14938756 127.53851808 142.15206119 132.09979349 142.16591835 136.66116333 C142.17845688 140.94902904 142.17659054 145.23664769 142.16350746 149.52450943 C142.16113355 151.10033373 142.16390539 152.67617521 142.17213058 154.25197983 C142.18253137 156.39898954 142.17455239 158.54515989 142.16181946 160.69213867 C142.1619872 161.89486923 142.16215494 163.09759979 142.16232777 164.33677673 C141.78759766 167.25878906 141.78759766 167.25878906 140.41836834 169.14581585 C138.04327952 170.76677351 136.21142335 170.63294039 133.35400391 170.63110352 C131.68712524 170.6404467 131.68712524 170.6404467 129.98657227 170.64997864 C128.18651733 170.63616402 128.18651733 170.63616402 126.35009766 170.62207031 C125.118479 170.62256882 123.88686035 170.62306732 122.61791992 170.62358093 C119.34410544 170.62063844 116.07072401 170.6036023 112.79699707 170.58135986 C110.78955467 170.57129887 108.78236425 170.57097665 106.77490234 170.57446289 C102.92485169 170.58086541 99.07512564 170.57296557 95.22509766 170.55957031 C94.02506104 170.56048172 92.82502441 170.56139313 91.58862305 170.56233215 C90.47737061 170.55280014 89.36611816 170.54326813 88.22119141 170.53344727 C87.24206787 170.52883987 86.26294434 170.52423248 85.25415039 170.51948547 C82.78759766 170.25878906 82.78759766 170.25878906 79.78759766 168.25878906 C79.38887024 166.0821228 79.38887024 166.0821228 79.35522461 163.35009766 C79.33543045 162.32919037 79.31563629 161.30828308 79.29524231 160.25643921 C79.28885239 159.15119904 79.28246246 158.04595886 79.27587891 156.90722656 C79.2579277 155.77805817 79.2399765 154.64888977 79.22148132 153.48550415 C79.16716878 149.86830413 79.133415 146.2512376 79.10009766 142.63378906 C79.06694314 140.18585373 79.03245525 137.73793606 78.99658203 135.29003906 C78.90891282 129.27960094 78.84902078 123.26978273 78.78759766 117.25878906 C71.19759766 116.92878906 63.60759766 116.59878906 55.78759766 116.25878906 C55.69671875 121.87201172 55.69671875 121.87201172 55.60400391 127.59863281 C55.54227103 131.20599505 55.47885995 134.81332414 55.4152832 138.4206543 C55.3718576 140.93592402 55.33018836 143.45122469 55.2902832 145.96655273 C55.23276472 149.5731745 55.16901799 153.17963937 55.10400391 156.78613281 C55.08729141 157.91840805 55.07057892 159.05068329 55.05335999 160.2172699 C55.03341476 161.25827347 55.01346954 162.29927704 54.99291992 163.37182617 C54.97737564 164.29337997 54.96183136 165.21493378 54.94581604 166.16441345 C54.78759766 168.25878906 54.78759766 168.25878906 53.78759766 169.25878906 C52.24139442 169.41785413 50.6882603 169.51025478 49.13525391 169.57519531 C48.14332031 169.61725098 47.15138672 169.65930664 46.12939453 169.70263672 C45.04722656 169.74179199 43.96505859 169.78094727 42.85009766 169.82128906 C41.74085938 169.86302246 40.63162109 169.90475586 39.48876953 169.94775391 C31.25519037 170.23091321 23.02586149 170.36417839 14.78759766 170.38378906 C13.18863647 170.39067749 13.18863647 170.39067749 11.55737305 170.39770508 C5.56140845 170.38583188 -0.28612646 170.21816569 -6.21240234 169.25878906 C-7.64238741 166.39881893 -7.34169412 163.96590184 -7.34611511 160.7677002 C-7.34838067 160.09361634 -7.35064623 159.41953248 -7.35298043 158.72502184 C-7.35933438 156.45566143 -7.35849019 154.18636053 -7.35766602 151.91699219 C-7.3606566 150.29434634 -7.36405889 148.6717012 -7.36784363 147.04905701 C-7.37669711 142.63388891 -7.37902228 138.21874018 -7.37965941 133.80356407 C-7.38060729 130.122879 -7.38428409 126.44219847 -7.38783151 122.76151514 C-7.39598085 114.08173042 -7.39841527 105.40195608 -7.39770508 96.72216797 C-7.39710384 87.7551052 -7.40766377 78.7881025 -7.42344874 69.82105494 C-7.4365027 62.13272139 -7.4418899 54.44440753 -7.44124967 46.75606298 C-7.44099409 42.15950251 -7.4438782 37.56299541 -7.45442772 32.96644592 C-7.46407296 28.64581548 -7.46421262 24.32528986 -7.45691109 20.00465584 C-7.45586084 18.41551117 -7.45825401 16.8263601 -7.46427155 15.23722649 C-7.47193261 13.07465168 -7.46738632 10.91244422 -7.4596405 8.74987793 C-7.46018527 7.53755241 -7.46073004 6.3252269 -7.46129131 5.07616425 C-7.00740846 -0.06170216 -4.51582414 0.00748053 0 0 Z " fill="#000000" transform="translate(558.21240234375,13.7412109375)"/>
<path d="M0 0 C1.08063721 0.24057129 2.16127441 0.48114258 3.2746582 0.72900391 C9.0975758 2.11978556 13.7961758 3.77741074 18.8125 7.0625 C18.8125 15.77176363 14.92695689 22.4101355 10.94726562 29.89697266 C9.80006686 32.08622675 8.69810939 34.29286249 7.609375 36.51171875 C7.07872437 37.59247681 7.07872437 37.59247681 6.53735352 38.69506836 C5.86179007 40.07401911 5.18772193 41.45370375 4.51538086 42.83422852 C1.2647873 49.39697033 1.2647873 49.39697033 -1.1875 52.0625 C-3.875 52.3125 -3.875 52.3125 -6.1875 52.0625 C-6.1875 51.4025 -6.1875 50.7425 -6.1875 50.0625 C-6.909375 49.77375 -7.63125 49.485 -8.375 49.1875 C-21.1875 44.0625 -21.1875 44.0625 -23.69140625 43.0078125 C-33.24282394 39.39053068 -46.0535914 37.98683841 -55.8125 41.3125 C-58.94322006 42.93583633 -60.95229171 44.36162332 -63.1875 47.0625 C-61.70030106 50.9832972 -59.95889107 52.29225521 -56.1875 54.0625 C-49.88161176 56.15662234 -43.4584456 57.43601121 -36.9140625 58.4921875 C-35.8094593 58.67052376 -35.8094593 58.67052376 -34.68254089 58.85246277 C-31.62900342 59.34025402 -28.57466488 59.82155364 -25.51757812 60.28662109 C-10.15235633 62.64266558 2.88416066 66.13416066 14.1875 77.4375 C21.75509871 89.66208252 21.65560604 107.81660542 18.55078125 121.4609375 C18.30714844 122.31945312 18.06351563 123.17796875 17.8125 124.0625 C17.51730469 125.10664063 17.22210937 126.15078125 16.91796875 127.2265625 C12.8042509 139.64039658 4.11949786 148.68132299 -7.1875 155.0625 C-39.64155653 171.04395042 -83.16630892 169.19427794 -118.1875 163.0625 C-119.21447998 162.88630127 -119.21447998 162.88630127 -120.26220703 162.70654297 C-130.72380751 160.82657448 -141.79357115 157.76576138 -150.015625 150.78515625 C-151.75521785 148.22795475 -152.02098673 146.1294421 -152.1875 143.0625 C-151.24609375 140.80859375 -151.24609375 140.80859375 -149.625 138.5 C-148.98691406 137.56800781 -148.34882812 136.63601562 -147.69140625 135.67578125 C-147.30871582 135.12873535 -146.92602539 134.58168945 -146.53173828 134.01806641 C-144.90764137 131.65536821 -143.34294687 129.25731943 -141.77734375 126.85546875 C-140.53947925 124.96587276 -139.30119375 123.0765525 -138.0625 121.1875 C-137.46493896 120.27154053 -136.86737793 119.35558105 -136.25170898 118.41186523 C-133.21456907 113.83065974 -130.2756267 109.74952747 -126.1875 106.0625 C-121.43248794 107.4657375 -117.34376556 109.55810537 -113.0625 112 C-100.58607782 118.87234456 -87.73586225 120.23070459 -73.6875 120.3125 C-72.80191406 120.333125 -71.91632813 120.35375 -71.00390625 120.375 C-65.19110267 120.40914275 -59.32860902 120.03583998 -54.1875 117.0625 C-52.91748274 115.04161867 -52.91748274 115.04161867 -52.1875 113.0625 C-55.98460938 107.44277812 -60.40342508 105.63865741 -66.82104492 104.31054688 C-68.09052979 104.13587891 -69.36001465 103.96121094 -70.66796875 103.78125 C-71.36207352 103.68162964 -72.05617828 103.58200928 -72.77131653 103.47937012 C-74.97136175 103.16452034 -77.17286888 102.86238322 -79.375 102.5625 C-105.67290118 98.93742466 -105.67290118 98.93742466 -116.4375 93.25 C-117.12005859 92.89599121 -117.80261719 92.54198242 -118.50585938 92.17724609 C-129.53515578 86.34332879 -139.23994024 78.36959808 -143.1875 66.0625 C-145.75750869 53.44609372 -143.87764545 42.05702831 -137.1875 31.0625 C-134.69969317 27.57193034 -132.16515383 24.15189801 -129.1875 21.0625 C-128.5275 21.0625 -127.8675 21.0625 -127.1875 21.0625 C-127.1875 20.4025 -127.1875 19.7425 -127.1875 19.0625 C-91.70391804 -11.3220633 -43.06054827 -9.67728042 0 0 Z " fill="#000000" transform="translate(1027.1875,20.9375)"/>
<path d="M0 0 C1.08063721 0.24057129 2.16127441 0.48114258 3.2746582 0.72900391 C9.0975758 2.11978556 13.7961758 3.77741074 18.8125 7.0625 C18.8125 15.77176363 14.92695689 22.4101355 10.94726562 29.89697266 C9.80006686 32.08622675 8.69810939 34.29286249 7.609375 36.51171875 C7.07872437 37.59247681 7.07872437 37.59247681 6.53735352 38.69506836 C5.86179007 40.07401911 5.18772193 41.45370375 4.51538086 42.83422852 C1.2647873 49.39697033 1.2647873 49.39697033 -1.1875 52.0625 C-3.875 52.3125 -3.875 52.3125 -6.1875 52.0625 C-6.1875 51.4025 -6.1875 50.7425 -6.1875 50.0625 C-6.909375 49.77375 -7.63125 49.485 -8.375 49.1875 C-21.1875 44.0625 -21.1875 44.0625 -23.69140625 43.0078125 C-33.24282394 39.39053068 -46.0535914 37.98683841 -55.8125 41.3125 C-58.94322006 42.93583633 -60.95229171 44.36162332 -63.1875 47.0625 C-61.70030106 50.9832972 -59.95889107 52.29225521 -56.1875 54.0625 C-49.88161176 56.15662234 -43.4584456 57.43601121 -36.9140625 58.4921875 C-35.8094593 58.67052376 -35.8094593 58.67052376 -34.68254089 58.85246277 C-31.62900342 59.34025402 -28.57466488 59.82155364 -25.51757812 60.28662109 C-10.15235633 62.64266558 2.88416066 66.13416066 14.1875 77.4375 C21.75509871 89.66208252 21.65560604 107.81660542 18.55078125 121.4609375 C18.30714844 122.31945312 18.06351563 123.17796875 17.8125 124.0625 C17.51730469 125.10664063 17.22210938 126.15078125 16.91796875 127.2265625 C12.8042509 139.64039658 4.11949786 148.68132299 -7.1875 155.0625 C-39.64155653 171.04395042 -83.16630892 169.19427794 -118.1875 163.0625 C-119.21447998 162.88630127 -119.21447998 162.88630127 -120.26220703 162.70654297 C-130.72380751 160.82657448 -141.79357115 157.76576138 -150.015625 150.78515625 C-151.75521785 148.22795475 -152.02098673 146.1294421 -152.1875 143.0625 C-151.24609375 140.80859375 -151.24609375 140.80859375 -149.625 138.5 C-148.98691406 137.56800781 -148.34882813 136.63601562 -147.69140625 135.67578125 C-147.30871582 135.12873535 -146.92602539 134.58168945 -146.53173828 134.01806641 C-144.90764137 131.65536821 -143.34294687 129.25731943 -141.77734375 126.85546875 C-140.53947925 124.96587276 -139.30119375 123.0765525 -138.0625 121.1875 C-137.46493896 120.27154053 -136.86737793 119.35558105 -136.25170898 118.41186523 C-133.21456907 113.83065974 -130.2756267 109.74952747 -126.1875 106.0625 C-121.43248794 107.4657375 -117.34376556 109.55810537 -113.0625 112 C-100.58607782 118.87234456 -87.73586225 120.23070459 -73.6875 120.3125 C-72.80191406 120.333125 -71.91632813 120.35375 -71.00390625 120.375 C-65.19110267 120.40914275 -59.32860902 120.03583998 -54.1875 117.0625 C-52.91748274 115.04161867 -52.91748274 115.04161867 -52.1875 113.0625 C-55.98460938 107.44277812 -60.40342508 105.63865741 -66.82104492 104.31054688 C-68.09052979 104.13587891 -69.36001465 103.96121094 -70.66796875 103.78125 C-71.36207352 103.68162964 -72.05617828 103.58200928 -72.77131653 103.47937012 C-74.97136175 103.16452034 -77.17286888 102.86238322 -79.375 102.5625 C-105.67290118 98.93742466 -105.67290118 98.93742466 -116.4375 93.25 C-117.12005859 92.89599121 -117.80261719 92.54198242 -118.50585938 92.17724609 C-129.53515578 86.34332879 -139.23994024 78.36959808 -143.1875 66.0625 C-145.75750869 53.44609372 -143.87764545 42.05702831 -137.1875 31.0625 C-134.69969317 27.57193034 -132.16515383 24.15189801 -129.1875 21.0625 C-128.5275 21.0625 -127.8675 21.0625 -127.1875 21.0625 C-127.1875 20.4025 -127.1875 19.7425 -127.1875 19.0625 C-91.70391804 -11.3220633 -43.06054827 -9.67728042 0 0 Z " fill="#000000" transform="translate(185.1875,16.9375)"/>
<path d="M0 0 C11.76338344 0.00234077 23.52676551 0.00258712 35.29014912 0.00148464 C36.55875459 0.00137006 36.55875459 0.00137006 37.85298846 0.00125317 C41.28892131 0.00094167 44.72485416 0.00062325 48.16078702 0.00029341 C80.17831855 -0.00274323 112.19584725 -0.00002808 144.21337835 0.0053903 C172.45478535 0.01013339 200.69618784 0.00970865 228.9375948 0.00492931 C260.90883697 -0.00046358 292.88007666 -0.00252759 324.85131922 0.00054158 C328.27981225 0.00086214 331.70830527 0.00117499 335.13679829 0.00148464 C335.98054618 0.00156372 336.82429407 0.00164279 337.69361008 0.00172427 C349.42984305 0.00277263 361.16607438 0.00187843 372.90230714 -0.0005033 C496.19929317 -0.02506533 496.19929317 -0.02506533 536.02319148 0.49138037 C538.09298458 0.51764237 540.16279212 0.54137743 542.23262253 0.56448603 C560.12627509 0.77903864 577.87873369 1.73211772 595.71347371 3.13530041 C595.71347371 3.79530041 595.71347371 4.45530041 595.71347371 5.13530041 C591.71969974 5.88090994 587.94761933 6.26060211 583.88699552 6.26180024 C582.7375806 6.26455998 581.58816567 6.26731972 580.40391999 6.2701631 C578.52048053 6.26708012 578.52048053 6.26708012 576.59899178 6.26393486 C575.24050179 6.26528183 573.88201218 6.2670659 572.52352327 6.26924709 C568.77957094 6.27398087 565.03564291 6.27247421 561.29168937 6.26996932 C557.22271278 6.268338 553.15374141 6.2724756 549.08476648 6.2758785 C541.94981392 6.28103662 534.81486815 6.28244898 527.67991391 6.28142238 C517.07029803 6.27989955 506.46068968 6.2840545 495.85107526 6.28929701 C475.80322988 6.29897626 455.75538706 6.30178144 435.70753963 6.30235407 C420.2319241 6.30281322 404.75630959 6.3048695 389.2806944 6.30805469 C384.82973636 6.3089522 380.37877833 6.30984201 375.9278203 6.31072957 C374.26816801 6.31106114 374.26816801 6.31106114 372.5749874 6.31139941 C341.44767147 6.31755476 310.32035589 6.32149985 279.19303933 6.32105613 C277.43213467 6.32103277 277.43213467 6.32103277 275.63565619 6.32100893 C269.68532146 6.32092582 263.73498673 6.32082677 257.784652 6.32072422 C256.01193172 6.3206943 256.01193172 6.3206943 254.2033989 6.32066378 C251.81348573 6.32062334 249.42357255 6.32058154 247.03365938 6.32053839 C209.82788721 6.31992526 172.62212414 6.3274386 135.41635457 6.34111095 C93.64251893 6.35645555 51.86868927 6.3650782 10.09485063 6.36414773 C5.64483566 6.3640731 1.19482069 6.36402439 -3.25519428 6.36399341 C-4.89882987 6.36397593 -4.89882987 6.36397593 -6.57567022 6.3639581 C-24.24344054 6.36392727 -41.91120299 6.37032514 -59.57897097 6.37892568 C-77.31789947 6.38738261 -95.05681639 6.3884075 -112.79574578 6.38181636 C-123.34641544 6.37810792 -133.89705001 6.37999145 -144.44771598 6.3897587 C-151.4841127 6.39572472 -158.52048381 6.39450121 -165.55687933 6.3872882 C-169.5732016 6.38337796 -173.58945561 6.38271268 -177.60577326 6.39074555 C-181.2535628 6.39797795 -184.90122668 6.39614339 -188.54901045 6.38682168 C-190.49126948 6.38426608 -192.43353366 6.39160226 -194.37577933 6.39924446 C-196.08863588 6.39211825 -196.08863588 6.39211825 -197.8360956 6.38484807 C-199.31769165 6.3849804 -199.31769165 6.3849804 -200.82921894 6.3851154 C-203.28652629 6.13530041 -203.28652629 6.13530041 -206.28652629 4.13530041 C-200.17220554 0.05908657 -192.1328385 0.93207068 -185.00344524 0.82356334 C-183.82548727 0.80309971 -182.64752931 0.78263608 -181.43387565 0.76155234 C-177.3281922 0.69430009 -173.22245939 0.63657425 -169.11660442 0.58110119 C-168.37806055 0.57072855 -167.63951668 0.56035591 -166.8785927 0.54966895 C-111.25857522 -0.2299097 -55.62433541 -0.0112856 0 0 Z " fill="#0A0A0A" transform="translate(342.2865262925625,201.8646995946765)"/>
<path d="" fill="#000000" transform="translate(0,0)"/>
</svg>
