<svg xmlns="http://www.w3.org/2000/svg" width="800" height="185" style="shape-rendering:geometricPrecision;text-rendering:geometricPrecision;image-rendering:optimizeQuality;fill-rule:evenodd;clip-rule:evenodd"><path fill="#dbdbdb" fill-opacity=".137" d="M222.72 18.04c-8.46.02-16.91-.04-25.36-.16.03-.66.4-.94 1.11-.85q11.025 0 22.05-.03c.62.01 2.53-.17 2.2 1.04m62.48-.14c-8.03.09-16.06.15-24.09.16.12-.74.57-1.1 1.36-1.06 7.01.02 14.03.02 21.04.02.73-.01 1.29.29 1.69.88m58.5.16c-13.15-.06-26.3-.06-39.44-.03.02-.74.43-1.08 1.21-1.02 12.01.01 24.03.01 36.05-.01.63.02 2.48-.13 2.18 1.06m77.86.04c-13.39-.11-26.78-.12-40.17-.02q-.09-1.11 1.08-1.05c12.96-.06 25.92-.01 38.87.15.36.23.44.54.22.92m69.65-.21q-20.97.165-41.94.15c-.37-1.22 1.6-1.02 2.21-1.04 12.34.03 24.69.02 37.03 0 1.08-.15 1.98.14 2.7.89m79.31.22c-13.13-.11-26.27-.13-39.4-.05.07-.78.51-1.13 1.33-1.06 12.02.02 24.05.03 36.07.01.54-.01 2.67-.09 2 1.1m197.84.05q-19.92-.285-39.84-.03c-.69-1.19 1.41-1.12 1.96-1.12 12.64-.04 25.28.01 37.91.15.31.33.29.66-.03 1m-629.57 2.4q.855-.24 1.02.63-.495-.33-1.02-.63m6.48 17.2c.33.32.65.66.95 1-.86.2-1.18-.14-.95-1M19.16 48.15c-.21.34-.41.7-.6 1.06-.16-.57.04-.92.6-1.06M64.79 62.6c.55-.2.9-.02 1.05.53-.35-.18-.7-.36-1.05-.53m-9.63 3.26q.525.285 1.05.54-.825.3-1.05-.54m53.68 12c-.15.56-.5.73-1.05.53.35-.16.7-.34 1.05-.53m-4.21 26.26c.65.08 1.05.44 1.22 1.07-.46-.31-.86-.66-1.22-1.07m-9.48 3.79c.46.19.78.52.93 1-.79.11-1.1-.22-.93-1m61.99 24.25c-.21.34-.42.69-.6 1.05q-.225-.84.6-1.05M17.6 133.78c.16.36.33.71.53 1.06-.91.1-1.09-.25-.53-1.06m122.74 17.56c-.37.3-.75.6-1.12.9.11-.62.48-.93 1.12-.9"/><path fill="#d8d8d8" fill-opacity=".204" d="M491.21 17.89c.34.06.55.27.64.63.13 48.66.19 97.33.15 146 0 .62.09 2.48-1.08 2.1.02-49.58.12-99.16.29-148.73"/><path fill="#cdcdcd" fill-opacity=".196" d="M607.86 17.8c.1 49.6.18 99.2.23 148.8-1.17.4-1.08-1.47-1.09-2.08q.03-72.015 0-144.03c-.17-1.08.11-1.97.86-2.69"/><path fill="#f5f5f5" fill-opacity=".098" d="M689.16 17.89c.39.03.64.24.75.64.07 48.66.11 97.32.09 145.99 0 .6.08 2.5-1.09 2.06.03-49.57.11-99.13.25-148.69"/><path fill="#e8e8e8" fill-opacity=".494" d="M662.78 17.85c.21 18.22.28 36.44.22 54.67-.03.57.16 2.47-.98 2.17.07-.21.14-.43.21-.65-.21-17.84-.29-35.69-.24-53.54.13-.66-.21-2.51.79-2.65m-.59 83.97c.62.35.89.9.81 1.64.03 21.09-.01 42.17-.13 63.25-1.01.13-.8-1.66-.87-2.19-.05-20.9.01-41.8.19-62.7"/><path fill="#bebebe" fill-opacity=".129" d="M464.1 166.57c-1.16.43-1.07-1.46-1.07-2.05-.06-32.33.02-64.66.22-96.98-.36-.93.53-4.98-1.26-4.58.38-2.32.89-4.59 1.53-6.83.44 1.06.63 2.18.55 3.36-.07 35.7-.06 71.39.03 107.08"/><path fill="#e9e9e9" fill-opacity=".376" d="M404.33 61.89c.34.07.55.29.62.65.03 33.99.05 67.98.05 101.98-.05.63.13 2.35-.97 2.24Q404 115.625 404 64.49c.01-.88.12-1.75.33-2.6"/><path fill="#a3a3a3" fill-opacity=".051" d="M255.23 106.01c.45-.13.73.03.83.49-.09 19.34-.12 38.68-.06 58.03.29 1.58-.26 2.08-1.64 1.5.47-1.13.69-2.3.66-3.52-.06-17.34-.1-34.68-.13-52.01-.02-1.51.09-3 .34-4.49"/><path fill="#f9f9f9" fill-opacity=".169" d="M563.14 132.57c-.86.28-1.73.43-2.64.43-9.17-.02-18.34-.02-27.51-.02.59-.84 1.42-1.17 2.5-.98q12.51.015 25.02 0c.95-.09 1.83.1 2.63.57m197.91.2c-10.04.29-20.08.28-30.12-.02.71-.62 1.57-.88 2.56-.76 8.97-.03 17.93.02 26.88.17.33.1.56.3.68.61"/><path fill="#e4e4e4" fill-opacity=".149" d="M633.49 18.12c-8.55-.05-17.09-.15-25.63-.32.34-.59.87-.85 1.6-.78 7.35 0 14.71 0 22.06-.02.59-.01 2.49-.03 1.97 1.12m55.67-.23c-8.79.17-17.59.15-26.38-.04.38-.62.94-.9 1.69-.84q12.015-.06 24.03.15c.38.11.6.35.66.73M146.22 38.76c.35.31.69.64 1.02.98-.93.27-1.27-.05-1.02-.98m-21 20.84c-.36.16-.71.35-1.04.55-.08-.88.27-1.06 1.04-.55M52.78 74.61c.81-.58 1.16-.4 1.04.54-.34-.2-.69-.38-1.04-.54m-2.61 7.24c.34.2.69.38 1.05.55-.8.51-1.15.33-1.05-.55m61.04 4.74q-.525.255-1.05.54.225-.84 1.05-.54M59.17 98.14c-.26.4-.56.78-.9 1.12-.29-.88.01-1.26.9-1.12"/><path fill="#ddd" fill-opacity=".267" d="M96.08 108.91c.68.28.98.79.92 1.55-.1 13.09-.01 26.17.29 39.24-.83.05-1.26-.34-1.28-1.18-.02-13.21 0-26.41.07-39.61"/><path fill="#b6b6b6" fill-opacity=".106" d="M87.97 109.96c.73.22 1.08.72 1.04 1.5-.03 12.02-.03 24.04-.01 36.06.02.85-.01 2.41-1.31 2.16.28-13.23.37-26.47.28-39.72"/><path fill="#fff" fill-opacity=".49" d="M104.71 114.05c.28 11.15.38 22.31.3 33.47-.02.63.04 2.4-1.11 2.08.12-11.01.15-22.05.1-33.12-.11-.93.13-1.74.71-2.43"/><path fill="#f5f5f5" fill-opacity=".184" d="M337.02 135c-1.43-.13-.52-1.26-1.56-1.97-9.33-.1-18.67-.13-28-.07q-.69.75-.93 1.77l-.62.18c.09-1.16-.08-2.91 1.6-2.87 8.66-.04 17.33-.06 26-.06 2.53-.53 3.7.48 3.51 3.02"/><path fill="#fff" fill-opacity=".412" d="M662.19 101.82c-9.39.24-18.77.23-28.15-.05.29-.56.77-.82 1.44-.75 8.66-.05 17.31-.01 25.97.12.37.1.62.33.74.68"/><path fill="#fff" fill-opacity=".075" d="M633.87 74.13c9.45-.11 18.9-.14 28.36-.09-.07.22-.14.44-.21.65-.82.22-1.66.33-2.51.34-8.01-.01-16.02-.02-24.03-.02-.73.03-1.27-.26-1.61-.88"/><path fill="#ebebeb" fill-opacity=".153" d="M424.57 151.86c7.06.16 14.12.2 21.18.11.1.39-.03.68-.39.86-6.9.24-13.8.22-20.69-.06-.34-.27-.37-.57-.1-.91"/><path fill="#ddd" fill-opacity=".149" d="M48.11 54.28c-.2.29-.38.6-.53.92-.21-.54-.03-.85.53-.92m120.77-.19c.85-.01 1.02.37.49 1.13-.15-.38-.31-.76-.49-1.13m-23.01 16.07c.95-.12 1.13.24.54 1.06-.16-.36-.34-.71-.54-1.06M77.18 97.44c-.81.29-1.61.28-2.41-.04.82-.39 1.62-.38 2.41.04m42.02 5.35c.37.3.72.62 1.05.95-.86.22-1.21-.1-1.05-.95m-73.54 49.54c.63-.04 1.02.24 1.15.86-.39-.28-.77-.57-1.15-.86m90.55 2.19c-.35.21-.69.42-1.02.65.11-.57.45-.78 1.02-.65"/><path fill="#e1e1e1" fill-opacity=".133" d="M53.83 26.85c-.14.56-.49.74-1.05.55.36-.17.71-.35 1.05-.55M167.9 52.13q1.335.03.66 1.29-.36-.63-.66-1.29m-37.69 23.48c-.35.16-.7.34-1.05.53.15-.55.5-.73 1.05-.53m-87.04 2.25c.34.19.69.36 1.04.53-.55.2-.9.02-1.04-.53m16.62.75c.54-.19.89-.01 1.04.54-.34-.19-.69-.37-1.04-.54"/><path fill="#dadada" fill-opacity=".129" d="M118.21 63.61c-.35.17-.7.35-1.04.54.15-.56.49-.74 1.04-.54m-81.08 9.46c-.02.52.08 1.02.29 1.49-1.39.43-1.9-1.24-.29-1.49m83.7 16.78c-.14.56-.49.74-1.04.54.35-.17.7-.35 1.04-.54"/><path fill="#d6d6d6" fill-opacity=".145" d="M42.76 34.75c-.07.63-.43.95-1.07.94.36-.31.72-.62 1.07-.94m48 42.88c.77-.51 1.17-.33 1.2.51-.4-.18-.79-.35-1.2-.51m65.95 71.06c0 .64-.32 1-.94 1.08.31-.36.63-.72.94-1.08m-6.95 7.07c-.07.63-.43.95-1.07.95.36-.31.72-.63 1.07-.95"/><path fill="#d8d8d8" fill-opacity=".153" d="M49.21 18.58c-.36.18-.71.38-1.05.59.13-.57.48-.77 1.05-.59m78.62 48.27c.1.9-.25 1.08-1.05.55.36-.17.71-.35 1.05-.55m12.02 12.03c-.16.54-.52.71-1.06.52.35-.16.71-.34 1.06-.52m23.65 60.92c.13.58-.1.92-.68 1.03.24-.33.47-.68.68-1.03"/><path fill="#d8d8d8" fill-opacity=".129" d="M129.17 25.85c.34.19.69.36 1.04.53-.55.21-.9.03-1.04-.53m30.46 30.93c.16.36.33.71.51 1.06-.85.04-1.01-.31-.51-1.06m-4.46 78.41c-.23.33-.45.67-.65 1.01-.13-.56.09-.9.65-1.01"/><path fill="#dfdfdf" fill-opacity=".157" d="M60.28 97.29c-.34.32-.71.6-1.11.85-.11-.87.26-1.16 1.11-.85m67.61 3.85c.55.16.73.52.54 1.07-.17-.37-.35-.72-.54-1.07"/><path fill="#eee" fill-opacity=".416" d="M240.29 74c.55.01 1.1-.01 1.65-.04-.03 1.18-1.87 1.6-1.65.04"/><path fill="#d9d9d9" fill-opacity=".149" d="M240 73.08c.67-.02 1.35-.04 2.02-.05-.03.31-.06.62-.08.93-.55.03-1.1.05-1.65.04-.1-.3-.2-.61-.29-.92"/><path fill="#dfdfdf" fill-opacity=".125" d="M134.83 62.85c-.14.56-.49.74-1.04.54.35-.17.7-.35 1.04-.54m2.99 101.96c-.12.58-.46.78-1.03.6.35-.19.69-.39 1.03-.6"/><path fill="#d1d1d1" fill-opacity=".149" d="M40.24 115.23c-.32.35-.63.71-.94 1.07 0-.63.32-.99.94-1.07m-6 7c-.32.35-.63.71-.95 1.07.01-.63.33-.99.95-1.07"/><path fill="#d4d4d4" fill-opacity=".141" d="M35.69 41.69c.01.64-.31 1-.94 1.07.32-.35.63-.71.94-1.07"/><path fill="#dadada" fill-opacity=".165" d="M28.87 134.14c.58.19.84.59.79 1.21-.28-.39-.54-.8-.79-1.21"/><path fill="#e0e0e0" fill-opacity=".165" d="M58.77 160.63c.77-.53 1.14-.37 1.13.49-.37-.18-.75-.34-1.13-.49"/><path fill="#fff" fill-opacity=".996" stroke="#fff" stroke-opacity=".996" stroke-width=".5" d="M138.79 20.56q.525.3 1.02.63c11.91 8.01 21.27 18.32 28.09 30.94q.3.66.66 1.29c.11.22.22.44.32.67.18.37.34.75.49 1.13 13.39 27.55 10.92 59.12-5.87 84.58-.21.35-.44.7-.68 1.03a72.5 72.5 0 0 1-6.11 7.86c-.31.36-.63.72-.94 1.08a89 89 0 0 1-6.01 5.99c-.35.32-.71.64-1.07.95-3.4 3-7.03 5.7-10.87 8.1-.34.21-.68.41-1.03.6-41.54 25.19-94.35 11.17-118.66-30.57-.2-.35-.37-.7-.53-1.06-14.75-26.32-14.36-58.59.96-84.57.19-.36.39-.72.6-1.06 7.29-12.04 16.96-21.7 29-28.98.34-.21.69-.41 1.05-.59 27.88-16.39 62.45-15.64 89.58 1.98Zm-84.96 6.29c-.34.2-.69.38-1.05.55a100 100 0 0 0-10.02 7.35c-.35.32-.71.63-1.07.94q-3.105 2.895-6 6c-.31.36-.62.72-.94 1.07-22.17 26.2-24.57 62.54-5.88 91.38.25.41.51.82.79 1.21a78 78 0 0 0 16 16.98c.38.29.76.58 1.15.86 3.79 2.79 7.78 5.28 11.96 7.44.38.15.76.31 1.13.49 24.46 11.4 52.97 9.27 75.29-5.95.33-.23.67-.44 1.02-.65.99-.78 1.99-1.54 3.01-2.28.37-.3.75-.6 1.12-.9a80.2 80.2 0 0 0 14.18-15.14c.2-.34.42-.68.65-1.01.45-.67.91-1.33 1.37-1.98.18-.36.39-.71.6-1.05 13.88-22.52 14.95-50.74 3-74.32-.18-.35-.35-.7-.51-1.06a80 80 0 0 0-12.39-17.04c-.33-.34-.67-.67-1.02-.98-.3-.34-.62-.68-.95-1a80.3 80.3 0 0 0-15.06-11.38c-.35-.17-.7-.34-1.04-.53-23.8-13.07-51.89-12.67-75.34 1Zm143.53-8.97c8.45.12 16.9.18 25.36.16.37.61.69 1.24.97 1.89 5.43 17.72 10.87 35.44 16.31 53.15.09.31.19.62.29.92-.22 1.56 1.62 1.14 1.65-.04.02-.31.05-.62.08-.93 2.4-7.09 16.4-52.55 19.09-54.97 8.03-.01 16.06-.07 24.09-.16a5467 5467 0 0 0-29.97 88.11c-.25 1.49-.36 2.98-.34 4.49.03 17.33.07 34.67.13 52.01a8.5 8.5 0 0 1-.66 3.52c-2.52 1.85-22.47.46-26.85.85-.53.03-.95-.17-1.26-.59a11114 11114 0 0 0-.39-57.76c-9.65-30.18-19.14-60.39-28.5-90.65Zm106.9.15c13.14-.03 26.29-.03 39.44.03.48 1.25.82 2.54 1.04 3.86 7.9 47.88 15.74 95.76 23.53 143.66-.17.97-.76 1.42-1.78 1.35l-22.98-.03c-.55.04-.98-.16-1.31-.59-1.85-10.42-3.58-20.85-5.18-31.31.19-2.54-.98-3.55-3.51-3.02-8.67 0-17.34.02-26 .06-1.68-.04-1.51 1.71-1.6 2.87-1.78 10.43-3.54 20.86-5.27 31.29-.59.55-1.3.78-2.13.71-6.67 0-13.34.01-20.01.02-.99.04-1.52-.42-1.61-1.39 8.74-48.3 17.51-96.6 26.33-144.9.15-.94.49-1.81 1.04-2.61Zm77.13.05c13.39-.1 26.78-.09 40.17.02 4.84 22.37 9.48 44.78 13.94 67.23.06.64.38 1.09.95 1.36 4.17-21.95 8.13-43.95 11.87-66.02.18-.92.5-1.8.95-2.63q20.97.015 41.94-.15c-.17 49.57-.27 99.15-.29 148.73-7.19.46-20.17.53-26.82-.05-.09-35.69-.1-71.38-.03-107.08.08-1.18-.11-2.3-.55-3.36-.64 2.24-1.15 4.51-1.53 6.83-5.15 28.69-10.24 57.4-15.26 86.11-.21 1.01-.53 1.97-.98 2.9-7.06.09-14.12.05-21.18-.11-6.2-29.25-12.27-58.52-18.22-87.82-.33-1.91-.61-3.83-.86-5.76-.68-1.79-1.1-1.72-1.26.19-.13 1.14-.1 2.28.1 3.42-.21.85-.32 1.72-.33 2.6q0 51.135.03 102.27c-7.17.16-14.35.2-21.52.14-.91-.03-1.39-.5-1.43-1.4l-.03-145.01c.01-.82.12-1.62.34-2.41Zm149.73-.02c13.13-.08 26.27-.06 39.4.05 8.39 49.1 16.57 98.24 24.53 147.42-.06.95-.58 1.42-1.55 1.39-7.66-.01-15.33-.01-23 0-1.76.18-1.86-1.62-2.17-2.87a878 878 0 0 0-5.19-31.48c-.8-.47-1.68-.66-2.63-.57q-12.51.015-25.02 0c-1.08-.19-1.91.14-2.5.98a1282 1282 0 0 0-5.22 31.37c-.03 1.55-.79 2.41-2.28 2.57-6.66-.01-13.32-.01-19.98.01-1.04.09-1.68-.35-1.93-1.32 8.85-48.7 17.71-97.4 26.61-146.09.09-.64.4-1.12.93-1.46Zm76.74-.26c8.54.17 17.08.27 25.63.32.24.77.36 1.56.36 2.36-.02 17.88-.02 35.77.02 53.65.34.62.88.91 1.61.88 8.01 0 16.02.01 24.03.02.85-.01 1.69-.12 2.51-.34 1.14.3.95-1.6.98-2.17.06-18.23-.01-36.45-.22-54.67 8.79.19 17.59.21 26.38.04-.14 49.56-.22 99.12-.25 148.69-6.26.6-19.16.35-26.04.13.12-21.08.16-42.16.13-63.25.08-.74-.19-1.29-.81-1.64a1.02 1.02 0 0 0-.74-.68c-8.66-.13-17.31-.17-25.97-.12-.67-.07-1.15.19-1.44.75-.15 21.49-.27 42.99-.36 64.48-.61.54-1.33.76-2.17.65-7.81.1-15.62 0-23.42-.3-.05-49.6-.13-99.2-.23-148.8Zm120.66.33q19.92-.255 39.84.03c8.4 49.07 16.59 98.19 24.58 147.35q-.015 1.41-1.44 1.41c-7.66-.01-15.33-.01-22.99 0-1.27.04-1.99-.57-2.18-1.83-1.6-10.8-3.36-21.57-5.28-32.32-.12-.31-.35-.51-.68-.61-8.95-.15-17.91-.2-26.88-.17-.99-.12-1.85.14-2.56.76-1.91 11.22-3.91 22.43-6.02 33.63q-.57.6-1.41.54c-6.67-.01-13.34-.01-20.01-.01-.86-.01-2.48.11-2.2-1.27 8.98-49.2 18.06-98.37 27.23-147.51ZM117.17 64.15c.34-.19.69-.37 1.04-.54 1.96-1.2 3.95-2.36 5.97-3.46.33-.2.68-.39 1.04-.55 2.9-1.75 5.82-3.47 8.74-5.17.75-.47 1.54-.6 2.38-.4a20.3 20.3 0 0 1 3.1 5.52c.1 1.12-3.81 2.62-4.61 3.3-.34.19-.69.37-1.04.54-1.96 1.21-3.94 2.37-5.96 3.46-.34.2-.69.38-1.05.55-5.95 3.53-11.93 7.02-17.94 10.46-.35.19-.7.37-1.05.53a11.1 11.1 0 0 0-2.91 2.12c-1.28 3.38-.24 5.7 3.13 6.97.76.18 1.48.07 2.15-.35q.525-.285 1.05-.54c5.97-3.52 11.95-7 17.95-10.45.35-.19.7-.37 1.05-.53 4.16-2.43 8.32-4.86 12.48-7.27 1.66-.54 2.72.07 3.18 1.82.2.35.38.7.54 1.06.82.84 1.2 1.82 1.15 2.94-2.48 1.7-5.06 3.27-7.71 4.72-.35.18-.71.36-1.06.52a1470 1470 0 0 1-17.96 10.45c-.34.19-.69.37-1.04.54-.64.51-3.17 1.41-2.29 2.58 3.96 2.11 7.88 4.31 10.39 8.17.19.35.37.7.54 1.07 3.09 6.58 1.96 11.66 12.11 9.69.57.02 1.1.2 1.56.54 4.05 4.63 8.07 9.28 12.05 13.96 1.66 2-.4 2.77-2.21 2.32-5.88-1.11-11.74-2.28-17.58-3.52-.49-.17-.86-.48-1.12-.93-1.52-7.73-6.83-7.52-12.93-5.64-7.42 1-10.9-3.64-15.6-4.58-.58.69-.82 1.5-.71 2.43.05 11.07.02 22.11-.1 33.12-2.2.29-4.4.32-6.61.1-.3-13.07-.39-26.15-.29-39.24.06-.76-.24-1.27-.92-1.55-.15-.48-.47-.81-.93-1-2.56-2.09-3.87-1.21-6.31.44-.5.42-.79.96-.87 1.61.09 13.25 0 26.49-.28 39.72-1.31.02-6.68.67-7.33-.44q-.12-16.92-.06-33.84c.02-.63-.26-1.08-.82-1.34a91 91 0 0 0-6.76 3.38c-6.87 4.1-15.71-3.66-19.75 2.99-1.55 2.42-.45 4.6-3.89 5.24-5.86 1.04-11.71 2.1-17.56 3.18-3.78-.36.96-4.42 1.77-5.55.32-.36.63-.72.95-1.07 1.67-2 3.35-3.97 5.06-5.93.31-.36.62-.72.94-1.07.89-1.31 1.99-2.39 3.29-3.25 14.38 1.39 8.03-4.78 14.74-12.72.34-.34.64-.72.9-1.12.4-.25.77-.53 1.11-.85 2.28-1.6 4.63-3.08 7.06-4.44.26-.29.27-.58.03-.88-5.36-3.22-10.75-6.41-16.15-9.57-.36-.17-.71-.35-1.05-.55-2.01-1.1-4-2.25-5.96-3.46-.35-.17-.7-.34-1.04-.53-1.9-1.13-3.82-2.22-5.75-3.3-.21-.47-.31-.97-.29-1.49 1.11-1.13 2.26-5.52 4.24-5.04 3.85 2.11 7.65 4.3 11.41 6.58.35.16.7.34 1.04.54 2.02 1.1 4.01 2.25 5.97 3.46.35.17.7.35 1.04.54 4.9 2.88 9.84 5.69 14.82 8.41 3.09-.49 4.85-1.64 4.65-5.08.1-1.22-.34-2.18-1.3-2.88-7.62-4.37-15.21-8.77-22.79-13.2q-.525-.255-1.05-.54c-3.28-1.85-6.51-3.78-9.69-5.78-.84-1.17 1.66-3.78 2.11-4.88.15-.32.33-.63.53-.92.71-.43 1.45-.46 2.21-.1 4.84 2.78 9.66 5.59 14.47 8.42.35.17.7.35 1.05.53 4.37 2.52 8.74 5.05 13.1 7.59 2.22 1.09.99-5.78 1.42-6.76.42-5.95 3.11-8.91 6.94-12.99 4.1-7.47-3.32-8.03-2.22-12.36q2.865-8.115 5.73-16.26c.69-1.67 1.67-1.88 2.93-.61 2 5.64 3.99 11.29 5.97 16.94 1.32 3.97-6.62 5.04-2.19 12.38 6.03 5.3 7.53 11.37 6.88 19.24.42.55.96.65 1.62.32 3.72-2.16 7.43-4.31 11.15-6.47Zm193.64 41.92c-.03 1.39 1.7 1.41 2.66 1.39 5.72-.02 11.43-.03 17.14-.02 2.29.02 1.48-2.57 1.33-3.95-2.7-16.66-5.4-33.32-8.08-49.98-.47-3.8-1.26-7.53-2.37-11.17-3.76 21.2-7.32 42.45-10.68 63.73Zm226.41.65c2.27 1.5 15.77.33 19.31.75 1.03.14 1.84-.19 2.43-1a3151 3151 0 0 0-10.4-64.17c-.64 1.69-1.12 3.42-1.43 5.2-3.29 19.75-6.59 39.48-9.91 59.22Zm197.92.1c2.65 1.3 15.59.28 19.39.64 1.02.13 1.8-.22 2.34-1.04-3.38-21.32-6.77-42.65-10.16-63.98-.13-.16-.26-.31-.38-.46-.49 1.46-.88 2.98-1.2 4.54q-5.055 30.15-9.99 60.3ZM90.76 77.63c.41.16.8.33 1.2.51 1.73-.31 4.97-1.45 4.88-3.64-.58-3.79 1.74-12.34-2.43-14.37-9.03-3.3-6.02 10.79-6.28 15.3.67.96 1.55 1.69 2.63 2.2ZM87.24 93c-.16 2.94 2.6 3.6 4.66 4.78 1.29.31 4.01-1.62 4.99-2.47.59-1.89.63-3.79.13-5.72-3.45-3.24-5.71-3.31-9.2-.09a6.57 6.57 0 0 0-.58 3.5Zm-12.47 4.4c-2.92 1.75-5.85 3.49-8.8 5.2-5.63 3.26-1.14 10.83 4.49 7.44 3.24-1.78 6.38-3.68 9.44-5.71.96-3.47.7-5.44-2.72-6.89-.79-.42-1.59-.43-2.41-.04Zm29.86 6.72c.36.41.76.76 1.22 1.07 3.03 1.75 6.06 3.48 9.11 5.19 4.57 2.07 8.21-2.73 5.29-6.64-.33-.33-.68-.65-1.05-.95-2.2-1.05-8.68-5.45-10.59-5.68-3.77.93-5.1 3.26-3.98 7.01Z"/><path fill="#515151" fill-opacity=".012" stroke="#515151" stroke-opacity=".012" stroke-width=".5" d="M91.96 78.14c-.03-.84-.43-1.02-1.2-.51a6.56 6.56 0 0 1-2.63-2.2c.26-4.51-2.75-18.6 6.28-15.3 4.17 2.03 1.85 10.58 2.43 14.37.09 2.19-3.15 3.33-4.88 3.64Z"/></svg>